<svg xmlns="http://www.w3.org/2000/svg" viewBox="0 0 1600 1000" preserveAspectRatio="xMidYMid slice"><g fill="none" stroke="#000" stroke-linejoin="round"><path d="M1600 930L1596 925L1592 921L1588 918L1584 915L1578 912L1572 909L1568 908L1560 906L1552 905L1544 905L1536 906L1528 908L1524 909L1518 912L1512 915L1508 918L1504 922L1500 926L1496 932L1494 936L1492 940L1489 948L1488 956L1488 964L1489 972L1490 980L1492 984L1495 992L1497 996" stroke-width="1.6"/><path d="M1600 889L1596 886L1590 884L1584 881L1580 879L1572 877L1565 876L1560 875L1552 874L1544 874L1536 874L1528 875L1522 876L1516 877L1508 879L1504 880L1496 883L1492 884L1485 888L1480 891L1476 893L1472 897L1468 900L1464 905L1460 911L1457 916L1456 920L1454 928L1452 936L1452 944L1452 952L1453 960L1454 968L1455 976L1456 980L1458 988L1460 992L1463 1000" stroke-width="0.8"/><path d="M469 566L465 568L460 570L454 574L450 578L447 582L445 586L442 594L441 599L441 606L441 612L443 618L445 625L449 631L453 635L457 638L461 640L466 643L473 644L481 644L489 643L493 641L499 639L504 635L508 631L512 627L514 622L517 614L518 610L519 602L518 594L516 590L513 584L509 578L505 574L501 571L497 569L490 566L485 565L477 565L469 566" stroke-width="0.8"/><path d="M1600 855L1592 852L1588 851L1580 848L1576 847L1568 846L1560 845L1552 844L1544 843L1540 843L1532 843L1524 843L1517 843L1512 844L1504 844L1496 844L1488 844L1480 844L1473 843L1468 843L1460 841L1456 839L1448 836L1444 833L1440 830L1436 827L1432 823L1427 819L1423 815L1419 811L1415 807L1411 803L1406 799L1400 795L1395 792L1391 790L1385 787L1379 785L1371 784L1363 784L1355 786L1351 787L1344 791L1339 795L1336 799L1333 803L1330 807L1327 814L1326 819L1324 827L1324 835L1325 843L1327 851L1328 855L1331 863L1334 867L1336 871L1339 876L1343 880L1347 885L1351 888L1355 892L1360 896L1366 900L1371 903L1375 906L1379 909L1383 912L1388 916L1392 920L1395 924L1399 929L1404 935L1406 940L1408 944L1411 952L1413 956L1416 963L1417 968L1420 976L1421 980L1424 988L1425 992L1428 1000" stroke-width="0.8"/><path d="M465 534L461 535L453 537L449 539L443 542L437 546L433 550L429 554L426 558L423 562L421 566L417 574L415 578L413 585L412 590L410 598L409 606L409 610L409 618L409 624L410 631L412 639L413 643L417 651L419 655L422 659L425 663L429 667L433 671L439 675L445 678L449 680L457 683L461 684L469 685L477 685L485 685L493 683L497 682L505 679L509 678L515 675L521 671L525 667L529 663L533 659L537 655L540 651L542 647L545 641L548 635L550 631L552 622L553 614L553 610L554 602L553 598L552 590L550 582L549 578L545 571L543 566L540 562L537 558L533 554L529 550L523 546L517 543L513 540L508 538L501 536L494 534L489 533L481 533L473 533L465 534" stroke-width="0.8"/><path d="M1600 817L1594 815L1588 814L1580 812L1573 811L1568 811L1560 810L1552 809L1544 808L1536 807L1532 807L1524 806L1516 805L1508 804L1504 803L1496 802L1488 799L1484 798L1477 795L1472 793L1468 791L1461 787L1456 784L1452 782L1448 779L1442 775L1436 771L1432 769L1428 766L1422 763L1416 760L1412 758L1405 755L1399 753L1391 751L1387 750L1379 749L1371 749L1363 750L1358 751L1351 753L1347 755L1339 759L1335 761L1331 764L1327 768L1323 772L1319 777L1315 783L1313 787L1310 791L1307 798L1306 803L1303 811L1302 815L1301 823L1301 831L1301 839L1302 847L1303 855L1304 859L1307 867L1308 871L1311 879L1313 884L1316 888L1319 894L1323 900L1326 904L1329 908L1332 912L1335 916L1339 921L1343 926L1347 931L1351 935L1355 940L1358 944L1361 948L1364 952L1367 956L1371 963L1375 968L1377 972L1379 978L1382 984L1384 988L1387 996L1389 1000" stroke-width="0.8"/><path d="M461 510L457 510L449 512L443 514L437 516L433 518L427 522L422 526L418 530L414 534L411 538L408 542L405 548L402 554L400 558L397 566L396 570L393 578L392 582L390 590L389 595L387 602L386 610L385 618L385 622L384 631L384 639L384 647L385 655L386 659L387 667L389 672L392 679L394 683L397 688L401 693L405 698L409 702L413 706L417 709L421 711L427 715L433 718L437 720L445 723L449 724L457 726L461 727L469 728L477 728L485 728L490 727L497 726L505 723L509 722L517 719L521 716L525 714L530 711L536 707L541 703L545 699L549 695L552 691L556 687L559 683L561 678L565 672L568 667L570 663L573 655L575 651L577 643L579 639L580 631L581 623L582 618L582 610L582 602L581 594L581 590L579 582L577 576L576 570L573 565L570 558L568 554L565 550L561 545L557 541L553 536L549 533L545 529L541 526L534 522L529 520L525 518L517 515L513 513L505 511L499 510L493 509L485 508L477 508L469 509L461 510" stroke-width="0.8"/><path d="M1600 763L1592 762L1584 762L1576 762L1568 761L1560 761L1552 760L1544 759L1540 759L1532 758L1524 757L1516 755L1512 754L1504 753L1498 751L1492 749L1486 747L1480 745L1475 743L1468 740L1464 739L1456 735L1452 734L1444 731L1440 729L1432 727L1428 725L1420 723L1416 722L1408 720L1399 719L1395 719L1387 718L1379 718L1373 719L1367 720L1359 721L1355 723L1347 726L1343 727L1337 731L1331 735L1327 738L1323 741L1319 745L1315 749L1311 754L1307 759L1305 763L1302 767L1299 772L1296 779L1294 783L1291 791L1290 795L1288 803L1287 807L1286 815L1285 823L1284 831L1284 839L1285 847L1286 855L1287 862L1288 867L1291 876L1292 880L1295 888L1296 892L1299 899L1302 904L1303 908L1307 915L1310 920L1312 924L1315 930L1319 936L1321 940L1323 944L1327 951L1330 956L1332 960L1335 966L1338 972L1340 976L1343 983L1345 988L1347 994L1349 1000" stroke-width="0.8"/><path d="M787 1000L785 996L783 988L782 984L779 976L777 972L774 964L772 960L770 956L766 948L763 944L761 940L758 935L754 929L750 924L747 920L743 916L740 912L736 908L732 904L728 900L724 896L719 892L715 888L710 884L706 880L702 877L698 874L694 871L688 867L682 863L678 861L674 858L669 855L663 851L658 848L654 846L650 843L643 839L638 836L634 834L629 831L623 827L618 824L614 822L610 819L604 815L599 811L595 807L591 803L587 799L584 795L581 790L579 783L578 775L578 767L579 759L580 751L581 747L584 739L585 733L587 727L589 721L591 715L593 709L595 703L597 696L599 691L602 683L603 679L605 671L606 667L607 659L609 651L610 647L611 639L611 631L612 622L612 614L612 606L611 598L610 590L609 586L608 578L606 570L604 566L602 559L599 554L597 550L593 543L590 538L588 534L585 530L581 526L577 522L573 518L569 514L564 510L558 506L553 503L549 501L544 498L537 495L533 494L525 491L519 490L513 489L505 487L497 486L492 486L485 486L477 485L469 486L464 486L457 487L449 488L441 489L437 490L429 493L425 495L419 498L413 502L409 505L405 509L401 513L398 518L395 522L393 526L389 534L388 538L385 545L383 550L381 558L380 562L377 570L376 574L374 582L373 587L371 594L369 602L368 606L366 614L365 619L363 627L361 635L360 639L359 647L357 655L356 659L355 667L354 675L354 683L354 691L355 699L357 707L358 711L360 719L362 723L365 730L367 735L370 739L373 744L377 751L380 755L383 759L386 763L389 767L393 772L397 777L401 781L405 786L409 791L412 795L415 799L418 803L421 807L425 813L428 819L430 823L433 831L434 835L436 843L437 851L437 855L437 863L437 869L437 876L436 884L435 892L434 900L434 908L433 912L432 920L431 928L430 936L430 944L429 949L428 956L428 964L427 972L426 980L426 988L425 995L425 1000" stroke-width="0.8"/><path d="M1202 0L1206 4L1209 8L1213 12L1217 16L1221 20L1226 24L1231 28L1235 30L1239 33L1247 36L1251 37L1259 39L1267 39L1275 39L1283 38L1291 37L1296 36L1303 34L1311 32L1315 31L1323 29L1327 28L1335 25L1339 24L1347 22L1352 20L1359 18L1366 16L1371 14L1379 12L1383 11L1391 9L1395 7L1404 5L1408 4L1416 2L1424 0" stroke-width="1.6"/><path d="M1600 695L1592 696L1584 697L1576 698L1572 699L1564 700L1556 700L1548 700L1540 701L1532 701L1524 700L1516 700L1508 699L1502 699L1496 698L1488 697L1480 696L1472 695L1468 694L1460 693L1452 692L1444 691L1440 690L1432 689L1424 689L1416 688L1408 688L1399 687L1391 688L1383 688L1375 689L1367 691L1363 692L1355 694L1351 695L1343 699L1339 701L1335 703L1330 707L1324 711L1320 715L1315 719L1312 723L1308 727L1305 731L1302 735L1299 739L1295 745L1292 751L1290 755L1287 760L1284 767L1283 771L1280 779L1278 783L1276 791L1275 795L1273 803L1272 811L1271 819L1271 823L1270 831L1270 839L1271 847L1271 851L1272 859L1273 867L1275 876L1276 880L1278 888L1279 892L1282 900L1283 904L1286 912L1288 916L1291 924L1292 928L1295 935L1297 940L1299 944L1302 952L1304 956L1307 964L1308 968L1311 976L1312 980L1314 988L1315 992L1317 1000" stroke-width="1.6"/><path d="M831 1000L830 996L828 988L826 982L824 976L822 968L821 964L818 956L817 952L814 944L812 940L810 935L807 928L805 924L802 918L798 912L796 908L794 904L790 898L786 892L783 888L780 884L777 880L773 876L770 871L766 867L762 862L758 858L754 854L750 849L746 845L742 841L738 837L734 833L730 829L726 825L722 821L718 817L714 813L710 809L706 805L702 801L698 797L694 792L690 788L686 783L682 779L679 775L676 771L673 767L670 762L666 756L663 751L661 747L658 740L655 735L654 730L652 723L650 715L649 711L648 703L647 695L647 687L647 679L647 671L647 663L647 655L647 647L647 639L647 631L647 622L646 614L646 607L645 602L644 594L643 586L642 581L640 574L638 566L637 562L634 554L632 550L630 544L627 538L625 534L622 529L618 522L615 518L612 514L609 510L605 506L602 502L597 498L593 494L588 490L583 486L577 482L573 480L569 478L561 474L557 473L549 470L545 469L537 467L530 466L525 465L517 464L509 463L501 463L493 463L485 462L477 462L469 462L461 463L453 463L445 464L437 465L431 466L425 467L417 469L413 471L405 474L401 476L397 479L393 483L389 487L385 492L382 498L380 502L377 509L375 514L373 522L372 526L370 534L369 539L367 546L365 554L364 558L363 566L361 573L359 578L357 586L356 590L354 598L352 602L350 610L348 614L345 622L343 627L341 633L338 639L336 643L333 650L331 655L329 659L325 667L323 671L321 676L318 683L316 687L313 695L312 699L310 707L309 713L308 719L308 727L308 735L308 743L309 749L310 755L311 763L312 771L313 777L314 783L315 791L316 799L317 807L317 811L318 819L318 827L319 835L319 843L319 851L319 859L318 867L318 876L317 884L316 888L316 896L314 904L313 912L313 916L311 924L310 932L309 936L307 944L305 952L304 956L302 964L301 969L299 976L297 983L295 988L293 995L291 1000" stroke-width="1.6"/><path d="M1092 0L1096 4L1101 8L1105 12L1109 16L1113 20L1116 24L1120 28L1123 32L1127 37L1131 42L1135 47L1138 52L1141 56L1144 60L1147 65L1151 71L1154 76L1156 80L1159 85L1163 91L1166 96L1168 100L1171 105L1175 111L1178 116L1181 120L1184 124L1187 129L1191 134L1195 138L1199 142L1203 145L1210 149L1215 150L1223 150L1229 149L1235 147L1239 145L1247 141L1251 138L1255 135L1259 133L1265 129L1271 124L1275 121L1279 118L1283 115L1287 112L1293 108L1299 104L1303 101L1307 98L1311 96L1316 92L1322 88L1327 85L1331 82L1335 80L1341 76L1347 73L1351 71L1356 68L1363 64L1367 62L1371 60L1379 56L1383 54L1388 52L1395 49L1399 47L1407 44L1412 42L1417 40L1424 38L1429 36L1436 34L1442 32L1448 30L1456 28L1460 27L1468 25L1472 24L1480 22L1488 21L1492 20L1500 19L1508 17L1516 16L1520 16L1528 15L1536 14L1544 13L1552 13L1560 13L1568 12L1576 12L1584 13L1592 13L1600 13" stroke-width="0.8"/><path d="M1600 647L1592 649L1584 651L1580 651L1572 653L1564 654L1559 655L1552 656L1544 656L1536 657L1528 658L1520 658L1512 658L1507 659L1500 659L1492 659L1484 659L1476 659L1468 659L1460 659L1452 659L1444 659L1436 659L1428 659L1420 659L1412 659L1404 660L1395 660L1387 661L1379 662L1374 663L1367 664L1359 666L1355 667L1347 669L1343 671L1335 675L1331 677L1327 679L1322 683L1317 687L1312 691L1308 695L1305 699L1302 703L1299 707L1295 712L1291 718L1288 723L1286 727L1283 733L1280 739L1278 743L1275 751L1274 755L1271 762L1269 767L1267 774L1266 779L1264 787L1263 791L1261 799L1260 807L1259 814L1259 819L1258 827L1258 835L1258 843L1259 851L1259 859L1260 863L1261 871L1262 880L1263 884L1265 892L1267 900L1268 904L1270 912L1271 916L1273 924L1275 930L1277 936L1279 943L1281 948L1283 956L1284 960L1286 968L1287 974L1288 980L1290 988L1291 996L1291 1000" stroke-width="0.8"/><path d="M861 1000L859 992L858 988L856 980L854 972L853 968L851 960L850 956L847 948L846 944L843 936L842 932L839 924L837 920L834 913L831 908L830 904L826 897L823 892L821 888L818 883L814 877L811 871L808 867L805 863L802 859L798 854L794 849L790 843L787 839L783 835L780 831L777 827L773 823L770 819L766 814L762 809L758 804L754 800L750 795L747 791L744 787L741 783L738 779L734 773L730 768L727 763L724 759L722 755L718 748L715 743L713 739L710 733L707 727L705 723L702 715L701 711L698 703L697 699L696 691L694 683L693 679L692 671L691 663L690 655L690 647L689 643L689 635L688 627L688 618L687 610L686 602L685 598L684 590L682 582L681 578L679 570L678 565L675 558L674 553L671 546L669 542L666 534L664 530L662 526L658 519L655 514L653 510L650 505L646 499L642 494L639 490L636 486L633 482L630 478L626 473L622 469L618 465L614 462L609 458L604 454L597 450L593 448L589 446L581 443L577 441L569 439L561 438L557 437L549 437L541 436L533 436L525 436L517 437L509 437L501 437L493 437L485 438L478 438L473 438L465 438L457 438L449 439L441 439L433 439L425 439L417 440L409 441L402 442L397 443L389 445L385 447L379 450L373 454L369 458L366 462L364 466L361 474L360 478L358 486L357 494L357 498L356 506L356 514L355 522L354 530L353 538L352 542L351 550L350 558L349 562L347 570L345 578L344 582L341 590L339 594L337 601L334 606L332 610L329 618L326 622L324 627L321 631L317 637L313 643L310 647L306 651L303 655L300 659L296 663L293 667L289 671L285 676L281 682L278 687L275 691L273 696L270 703L269 710L268 715L267 723L267 731L267 739L267 747L267 755L268 763L268 771L269 775L269 783L269 791L270 799L270 807L269 815L269 823L269 830L268 835L267 843L266 851L265 859L264 863L263 871L261 880L260 884L258 892L257 896L254 904L253 908L250 916L248 920L245 928L243 932L241 937L237 944L235 948L233 952L229 959L226 964L223 968L220 972L217 977L213 982L209 987L205 992L201 996L196 1000" stroke-width="0.8"/><path d="M215 0L217 5L218 12L220 20L220 28L220 36L219 44L217 52L215 56L213 63L210 68L209 72L205 80L203 84L201 89L196 96L194 100L192 104L188 112L186 116L184 120L181 129L179 133L176 140L175 145L173 153L172 158L172 165L172 173L173 177L175 185L176 189L180 197L183 201L187 205L191 209L196 213L201 216L205 218L210 221L217 224L221 225L229 227L237 228L245 229L253 228L261 226L265 224L269 221L273 217L277 211L279 205L281 201L282 193L283 185L283 177L283 169L282 161L281 153L280 149L278 141L277 134L275 129L273 120L272 116L270 108L268 104L266 96L264 92L262 84L261 80L258 72L257 67L255 60L253 52L252 48L252 40L252 32L252 24L253 20L255 12L257 7L259 0" stroke-width="0.8"/><path d="M772 0L778 2L786 4L790 4L798 4L804 4L810 4L818 3L826 1L834 0" stroke-width="0.8"/><path d="M1002 0L1007 2L1012 4L1019 7L1023 9L1029 12L1035 15L1039 17L1043 20L1049 24L1054 28L1059 31L1063 35L1067 38L1071 42L1075 46L1079 50L1083 54L1087 58L1091 63L1095 68L1098 72L1101 76L1104 80L1107 85L1111 91L1114 96L1116 100L1119 105L1123 112L1125 116L1127 120L1131 129L1133 133L1135 138L1138 145L1139 149L1142 157L1144 161L1147 169L1148 173L1151 181L1152 185L1155 193L1156 197L1158 205L1159 209L1162 217L1163 222L1165 229L1167 236L1169 241L1171 248L1173 253L1175 258L1179 265L1183 269L1187 271L1195 270L1199 268L1203 265L1208 261L1211 257L1215 253L1219 248L1223 243L1227 237L1230 233L1233 229L1236 225L1239 221L1243 216L1247 210L1251 205L1254 201L1258 197L1261 193L1264 189L1268 185L1271 180L1275 176L1279 171L1283 167L1287 163L1291 158L1295 154L1299 150L1303 146L1307 143L1311 139L1315 135L1319 132L1323 128L1328 124L1333 120L1338 116L1343 112L1347 109L1351 106L1355 104L1360 100L1366 96L1371 93L1375 91L1379 88L1386 84L1391 82L1395 79L1402 76L1408 73L1412 72L1419 68L1424 66L1429 64L1436 62L1440 60L1448 57L1452 56L1460 53L1464 52L1472 50L1478 48L1484 47L1492 45L1496 44L1504 43L1512 41L1520 40L1524 40L1532 39L1540 38L1548 38L1556 37L1564 37L1572 37L1580 37L1588 38L1596 38" stroke-width="0.8"/><path d="M1600 615L1592 617L1585 618L1580 619L1572 621L1564 622L1560 623L1552 625L1544 626L1538 627L1532 627L1524 628L1516 629L1508 630L1500 631L1496 631L1488 631L1480 632L1472 633L1464 633L1456 634L1448 634L1440 635L1436 635L1428 635L1420 636L1412 636L1404 637L1395 638L1387 638L1383 639L1375 640L1367 641L1359 643L1355 643L1347 645L1343 647L1335 649L1331 651L1323 654L1319 656L1315 659L1309 663L1304 667L1300 671L1296 675L1293 679L1290 683L1287 687L1283 694L1281 699L1279 703L1275 711L1273 715L1271 720L1269 727L1267 731L1264 739L1263 743L1261 751L1259 756L1257 763L1255 770L1254 775L1252 783L1251 789L1250 795L1249 803L1248 811L1247 819L1247 823L1246 831L1246 839L1247 847L1247 855L1247 859L1248 867L1249 876L1250 884L1251 890L1252 896L1254 904L1255 910L1256 916L1258 924L1259 928L1261 936L1263 944L1263 948L1265 956L1266 964L1267 969L1268 976L1269 984L1270 992L1270 1000" stroke-width="0.8"/><path d="M39 1000L32 998L27 996L20 994L16 992L8 989L4 987" stroke-width="0.8"/><path d="M885 1000L883 992L882 988L880 980L878 972L877 968L875 960L874 956L872 948L870 942L868 936L866 930L864 924L862 918L860 912L858 908L854 900L853 896L850 890L847 884L844 880L842 875L838 868L835 863L833 859L830 855L826 849L822 844L819 839L816 835L813 831L810 827L806 821L802 816L799 811L796 807L793 803L790 799L786 794L782 788L779 783L776 779L773 775L770 770L766 763L763 759L761 755L758 749L755 743L753 739L750 732L748 727L746 722L743 715L742 710L740 703L738 695L737 691L735 683L734 675L734 671L733 663L732 655L732 647L732 639L731 631L731 622L731 614L730 606L730 602L729 594L728 586L726 578L725 574L723 566L721 562L719 554L717 550L714 543L712 538L710 534L706 527L703 522L701 518L698 513L694 506L691 502L689 498L686 493L682 487L678 482L676 478L673 474L670 469L666 463L662 458L659 454L657 450L654 446L650 440L646 435L642 430L639 426L635 422L632 418L628 414L624 410L620 406L615 402L610 398L606 396L599 394L593 392L585 392L577 392L569 393L565 394L557 396L549 398L545 399L537 401L533 402L525 404L517 405L513 406L505 407L497 409L490 410L485 410L477 411L469 411L461 412L453 412L445 412L437 411L429 411L421 410L413 410L409 409L401 409L393 408L385 408L377 408L369 409L364 410L357 411L350 414L345 416L341 419L337 422L333 427L329 433L327 438L326 446L326 454L327 462L329 469L330 474L332 482L333 486L335 494L336 502L337 508L337 514L338 522L338 530L338 538L337 546L337 550L335 558L334 566L333 570L330 578L329 582L326 590L324 594L321 600L317 606L315 610L312 614L309 618L305 623L301 628L297 632L293 635L289 639L284 643L278 647L273 651L269 653L265 656L261 659L256 663L252 667L248 671L245 676L241 683L240 687L238 695L237 703L237 711L237 719L237 727L238 735L238 743L239 751L240 759L240 767L240 775L241 782L241 787L241 795L241 799L240 807L240 815L239 823L238 831L237 839L236 843L234 851L233 859L232 863L229 871L228 876L225 884L224 888L221 896L219 900L217 906L214 912L212 916L209 922L205 928L203 932L200 936L196 941L192 947L188 952L185 956L182 960L178 964L174 968L169 972L165 976L160 979L156 982L152 985L148 988L141 992L136 994L132 996L124 999" stroke-width="0.8"/><path d="M156 494L152 495L146 498L140 501L136 504L132 508L128 512L124 518L122 522L120 527L119 534L120 542L121 546L124 551L128 556L132 560L136 563L143 566L148 567L156 567L160 566L166 562L170 558L173 554L176 548L179 542L181 538L183 530L184 525L186 518L186 510L185 502L183 498L178 494L172 492L164 492L156 494" stroke-width="0.8"/><path d="M181 0L181 8L182 16L182 24L182 32L181 40L180 47L180 52L178 60L177 68L176 72L173 80L172 84L170 92L168 96L166 104L164 108L162 116L160 120L158 129L156 133L155 141L153 149L152 153L151 161L151 169L152 177L152 181L154 189L156 195L159 201L161 205L164 209L168 214L172 219L176 223L180 226L184 229L190 233L196 237L201 240L205 242L211 245L217 248L221 250L229 253L233 254L240 257L245 258L253 261L257 262L265 263L273 265L281 265L289 263L295 261L300 257L304 253L306 249L309 244L311 237L313 229L313 225L314 217L314 209L314 201L314 193L313 185L313 181L311 173L310 165L309 157L308 153L307 145L305 137L304 133L302 124L301 116L300 112L298 104L297 96L296 92L295 84L293 76L293 71L292 64L291 56L291 48L291 40L291 32L291 24L292 16L293 8L293 4" stroke-width="0.8"/><path d="M726 0L730 7L732 12L735 16L738 20L742 25L746 29L751 32L758 35L762 37L770 38L778 38L786 37L794 36L798 35L806 34L814 32L818 31L826 29L831 28L838 27L846 25L850 24L858 22L866 21L870 20L878 19L886 18L894 17L902 16L906 16L914 16L922 16L930 16L934 16L942 17L950 18L958 20L962 20L970 22L977 24L982 26L989 28L994 30L999 32L1007 36L1011 38L1015 40L1021 44L1027 48L1031 50L1035 53L1039 56L1043 60L1048 64L1052 68L1056 72L1060 76L1064 80L1067 84L1071 88L1075 94L1079 99L1082 104L1085 108L1088 112L1091 118L1094 124L1097 129L1099 133L1102 141L1104 145L1107 151L1109 157L1111 161L1113 169L1115 173L1117 181L1119 187L1120 193L1122 201L1123 205L1125 213L1126 221L1127 227L1128 233L1129 241L1129 249L1130 257L1130 265L1131 273L1131 279L1131 285L1132 293L1132 301L1133 309L1134 317L1135 321L1137 329L1139 333L1143 340L1147 345L1151 348L1155 350L1163 352L1171 353L1179 351L1185 349L1191 347L1195 345L1200 341L1206 337L1210 333L1214 329L1217 325L1220 321L1223 317L1227 311L1231 305L1233 301L1235 297L1239 289L1241 285L1243 280L1247 273L1249 269L1251 264L1254 257L1257 253L1259 248L1263 241L1265 237L1268 233L1271 227L1275 221L1278 217L1280 213L1283 209L1287 203L1291 198L1295 193L1298 189L1301 185L1305 181L1308 177L1312 173L1315 169L1319 165L1323 161L1327 157L1331 153L1336 149L1340 145L1345 141L1350 137L1354 133L1359 129L1363 126L1367 123L1371 120L1376 116L1382 112L1387 109L1391 107L1395 104L1402 100L1408 98L1412 95L1418 92L1424 89L1428 88L1435 84L1440 82L1445 80L1452 78L1456 76L1464 74L1468 72L1476 70L1482 68L1488 67L1496 65L1500 64L1508 63L1516 61L1524 60L1528 60L1536 59L1544 58L1552 58L1560 58L1568 58L1576 58L1584 58L1592 59L1600 60" stroke-width="0.8"/><path d="M1600 590L1596 591L1588 593L1583 594L1576 596L1568 598L1564 598L1556 600L1548 601L1542 602L1536 603L1528 605L1520 606L1515 606L1508 607L1500 608L1492 609L1484 610L1480 611L1472 612L1464 613L1456 613L1448 614L1444 615L1436 615L1428 616L1420 617L1412 618L1404 618L1399 619L1391 620L1383 620L1375 621L1367 622L1363 623L1355 624L1347 626L1343 627L1335 628L1327 630L1323 631L1315 634L1311 636L1305 639L1299 642L1295 645L1291 648L1287 651L1283 655L1279 660L1275 666L1272 671L1270 675L1267 682L1265 687L1263 692L1261 699L1259 705L1258 711L1255 719L1254 723L1252 731L1251 735L1249 743L1247 751L1246 755L1244 763L1243 769L1242 775L1241 783L1239 791L1239 795L1238 803L1237 811L1236 819L1236 827L1235 835L1235 843L1235 851L1236 859L1236 867L1237 876L1238 884L1239 892L1240 896L1241 904L1242 912L1243 918L1244 924L1245 932L1247 940L1247 944L1248 952L1249 960L1250 968L1251 976L1251 984L1251 992L1251 1000" stroke-width="0.8"/><path d="M905 1000L903 992L902 987L901 980L899 972L898 968L896 960L894 954L892 948L890 940L889 936L887 928L885 924L883 916L881 912L878 904L877 900L874 894L871 888L870 884L866 877L864 871L861 867L858 862L855 855L852 851L850 847L846 841L842 835L840 831L837 827L834 823L830 817L826 811L824 807L821 803L818 799L814 793L810 787L808 783L805 779L802 774L798 767L796 763L794 759L790 752L788 747L786 743L783 735L781 731L778 723L777 719L775 711L774 707L772 699L771 691L770 686L769 679L769 671L768 663L768 655L769 647L769 639L769 631L770 622L770 618L770 610L771 602L771 594L770 586L770 582L768 574L766 566L765 562L762 554L761 550L758 544L755 538L753 534L750 530L746 523L742 518L740 514L737 510L734 506L730 500L726 494L723 490L720 486L717 482L714 478L710 472L706 466L703 462L700 458L697 454L694 448L690 442L687 438L685 434L682 429L678 422L675 418L673 414L670 407L667 402L664 398L662 392L658 386L656 382L654 376L650 369L648 365L646 360L642 353L640 349L638 345L634 338L631 333L628 329L624 325L620 321L614 318L610 317L603 317L597 319L592 321L585 325L581 327L577 330L573 333L568 337L563 341L557 345L553 348L549 351L545 354L539 357L533 361L529 363L525 366L517 369L513 371L507 373L501 375L494 378L489 379L481 380L473 381L469 382L461 382L453 382L445 382L437 382L433 381L425 380L417 379L412 378L405 376L397 374L393 373L385 371L379 369L373 368L365 366L357 365L353 365L345 365L341 366L333 368L329 370L323 373L317 378L313 381L309 385L305 389L301 393L297 398L294 402L290 406L287 410L285 414L281 420L277 426L275 430L273 435L271 442L273 450L275 454L279 458L283 462L288 466L292 470L296 474L300 478L303 482L306 486L309 490L313 497L315 502L317 507L319 514L321 521L322 526L322 534L322 542L322 550L321 558L320 562L318 570L316 574L313 582L311 586L309 590L305 597L301 602L297 606L293 610L289 614L285 617L281 620L276 622L269 626L265 628L258 631L253 632L245 634L241 635L233 637L226 639L221 641L217 643L213 648L210 655L209 663L209 671L209 679L210 687L211 695L212 703L213 708L213 715L215 723L216 731L217 739L217 743L218 751L218 759L219 767L219 775L219 783L219 791L219 799L218 807L218 815L217 823L216 827L215 835L213 843L212 847L210 855L209 860L206 867L205 872L202 880L200 884L196 891L195 896L192 900L188 907L186 912L183 916L180 920L176 925L172 930L168 935L164 940L160 944L156 947L152 951L148 954L144 957L140 960L135 964L128 967L124 969L118 972L112 974L106 976L100 977L92 979L84 980L79 980L74 980L68 980L60 979L52 978L44 976L40 975L32 973L28 971L20 968L16 967L10 964L4 961L0 959" stroke-width="0.8"/><path d="M196 462L192 462L184 463L176 465L172 466L164 469L160 470L152 473L148 475L143 478L136 481L132 484L128 486L123 490L118 494L113 498L109 502L105 506L102 510L99 514L96 518L93 526L91 530L90 538L91 546L92 550L96 558L98 562L101 566L104 570L108 574L112 578L117 582L123 586L128 590L132 593L136 595L142 598L148 601L152 603L160 606L164 607L172 608L180 607L184 605L188 600L191 594L192 589L194 582L196 574L197 570L199 562L201 555L202 550L204 542L205 538L207 530L209 526L211 518L213 514L216 506L217 502L220 494L221 490L223 482L224 474L221 467L217 464L209 462L205 462L196 462" stroke-width="0.8"/><path d="M160 0L160 4L161 12L161 20L161 28L161 36L160 41L160 48L159 56L157 64L156 69L155 76L153 84L152 88L150 96L148 101L146 108L144 115L143 120L141 129L140 133L138 141L137 149L136 153L135 161L135 169L136 177L136 181L138 189L140 197L142 201L144 206L148 213L151 217L154 221L158 225L161 229L165 233L170 237L175 241L180 245L184 248L188 251L192 253L199 257L205 261L209 263L213 265L219 269L225 272L229 274L233 277L240 281L245 284L249 287L253 289L258 293L263 297L267 301L272 305L275 309L278 313L281 318L284 325L285 329L285 337L285 345L284 349L282 357L280 361L277 369L274 373L272 378L269 383L265 388L261 394L258 398L254 402L250 406L246 410L242 414L237 418L233 421L229 424L225 426L219 430L213 433L209 435L201 438L196 440L191 442L184 444L180 446L172 449L168 451L162 454L156 456L152 458L145 462L140 464L136 466L129 470L124 473L120 475L116 478L110 482L104 486L100 489L96 492L92 496L88 499L84 503L80 507L76 512L72 517L69 522L67 526L64 534L63 538L63 546L64 551L67 558L69 562L72 567L76 572L80 577L84 581L88 584L92 588L96 591L100 594L106 598L111 602L116 606L120 609L124 612L128 615L134 618L139 622L144 626L148 629L152 633L156 636L160 640L164 645L168 649L172 655L175 659L177 663L180 670L182 675L184 680L187 687L188 692L190 699L192 707L193 711L195 719L196 726L197 731L199 739L200 747L201 754L201 759L202 767L202 775L202 783L202 791L201 799L201 807L200 811L199 819L198 827L196 833L195 839L193 847L192 851L189 859L188 863L184 871L183 876L180 880L177 888L174 892L172 896L168 901L164 907L161 912L157 916L154 920L150 924L146 928L142 932L137 936L132 939L128 941L124 944L117 948L112 950L107 952L100 954L93 956L88 957L80 957L72 958L64 957L56 956L52 956L44 954L36 952L32 951L24 948L20 946L14 944L8 941L4 939" stroke-width="0.8"/><path d="M703 0L705 8L706 12L708 20L710 28L711 32L713 40L714 44L716 52L718 56L722 64L725 68L730 72L734 74L742 76L750 76L758 75L766 73L770 72L778 69L782 68L790 65L794 64L802 61L806 60L814 57L818 56L826 54L830 52L838 50L845 48L850 47L858 45L863 44L870 43L878 41L886 40L890 40L898 39L906 39L914 39L922 39L930 40L934 40L942 41L950 43L956 44L962 46L970 48L974 50L981 52L986 55L990 56L998 60L1003 63L1007 65L1011 68L1017 72L1022 76L1027 80L1031 83L1035 87L1039 91L1043 95L1047 99L1051 104L1054 108L1057 112L1060 116L1063 120L1067 126L1071 132L1073 137L1075 141L1079 148L1081 153L1083 157L1086 165L1088 169L1091 177L1092 181L1094 189L1095 193L1097 201L1099 207L1100 213L1101 221L1102 229L1103 233L1104 241L1104 249L1105 257L1105 265L1105 273L1105 281L1105 289L1105 297L1104 305L1104 313L1104 321L1104 329L1105 337L1106 345L1107 352L1108 357L1111 365L1113 369L1116 373L1120 378L1125 382L1131 385L1135 386L1143 388L1151 388L1159 388L1167 387L1172 386L1179 383L1184 382L1191 379L1195 377L1201 373L1207 370L1211 367L1215 364L1219 361L1223 357L1227 353L1231 348L1235 343L1239 337L1242 333L1244 329L1247 324L1251 317L1253 313L1255 308L1258 301L1260 297L1263 290L1265 285L1267 280L1270 273L1272 269L1275 263L1278 257L1280 253L1283 247L1286 241L1289 237L1291 233L1295 226L1299 221L1301 217L1304 213L1307 209L1311 203L1315 198L1319 193L1323 189L1326 185L1330 181L1334 177L1338 173L1342 169L1346 165L1350 161L1354 157L1359 153L1363 149L1367 146L1371 142L1375 139L1379 136L1385 133L1391 129L1395 125L1399 123L1404 120L1410 116L1416 114L1420 111L1425 108L1432 105L1436 103L1443 100L1448 98L1452 96L1460 94L1464 92L1472 90L1476 88L1484 86L1490 84L1496 83L1504 81L1509 80L1516 79L1524 78L1532 77L1539 76L1544 76L1552 76L1560 75L1568 75L1576 76L1584 76L1588 77L1596 77" stroke-width="0.8"/><path d="M1600 569L1596 570L1588 573L1581 574L1576 576L1568 577L1564 578L1556 580L1548 582L1544 582L1536 584L1528 585L1521 586L1516 587L1508 589L1500 590L1496 591L1488 592L1480 593L1472 594L1468 595L1460 596L1452 597L1444 598L1440 598L1432 599L1424 600L1416 601L1408 602L1404 603L1395 603L1387 604L1379 605L1371 606L1367 606L1359 607L1351 608L1343 610L1338 610L1331 612L1323 613L1317 614L1311 616L1303 618L1299 619L1291 622L1287 624L1283 627L1276 631L1271 634L1267 638L1263 643L1260 647L1258 651L1255 656L1252 663L1251 667L1249 675L1247 681L1246 687L1245 695L1243 703L1242 707L1241 715L1240 723L1239 727L1237 735L1236 743L1235 748L1234 755L1232 763L1231 771L1230 775L1229 783L1228 791L1227 799L1227 803L1226 811L1225 819L1225 827L1224 835L1224 843L1224 851L1225 859L1225 867L1225 876L1226 884L1227 892L1227 896L1228 904L1229 912L1230 920L1231 928L1231 932L1232 940L1233 948L1234 956L1234 964L1234 972L1234 980L1234 988L1234 996" stroke-width="0.8"/><path d="M924 1000L922 993L921 988L919 980L918 976L916 968L914 961L913 956L911 948L910 944L908 936L906 931L904 924L902 918L900 912L898 906L896 900L894 895L891 888L889 884L886 876L884 871L882 867L878 860L876 855L873 851L870 845L867 839L864 835L862 831L858 825L854 819L852 815L849 811L846 806L842 799L839 795L837 791L834 786L830 779L828 775L825 771L822 765L819 759L817 755L814 748L812 743L810 738L807 731L806 726L804 719L802 711L801 707L800 699L799 691L798 683L798 675L799 667L799 659L800 651L801 643L802 635L803 631L804 622L806 614L806 610L808 602L809 594L809 586L809 578L809 570L807 562L806 557L803 550L802 546L798 539L795 534L792 530L789 526L786 522L782 517L778 512L774 507L770 502L766 498L762 494L759 490L755 486L752 482L749 478L745 474L742 470L738 465L734 460L730 454L726 450L724 446L721 442L718 437L714 431L710 426L708 422L706 418L702 411L699 406L697 402L694 395L691 390L690 386L686 378L685 373L682 366L680 361L678 354L676 349L674 341L673 337L671 329L670 324L668 317L667 309L666 304L665 297L663 289L662 281L662 275L661 269L660 261L659 253L658 245L657 241L655 233L654 229L650 222L646 218L642 217L636 217L630 219L625 221L618 225L614 228L610 231L606 235L602 239L597 243L593 247L589 251L585 256L581 261L578 265L574 269L571 273L568 277L565 281L561 285L557 290L553 295L549 299L545 304L541 308L537 312L533 316L529 320L525 323L521 326L517 329L511 333L505 337L501 339L496 341L489 344L485 346L477 348L469 349L465 350L457 350L449 350L442 349L437 349L429 347L423 345L417 343L411 341L405 339L401 337L395 333L389 330L385 327L381 324L377 321L373 317L369 313L365 308L361 302L358 297L356 293L353 285L352 281L350 273L349 265L348 261L347 253L346 245L345 237L344 233L343 225L342 217L341 209L340 205L339 197L337 189L336 185L335 177L333 169L332 165L330 157L329 149L328 145L326 137L325 131L323 124L322 116L321 112L319 104L318 96L317 91L316 84L315 76L314 68L313 60L312 56L312 48L312 40L312 32L312 24L313 16L313 12L314 4" stroke-width="0.8"/><path d="M261 498L269 497L275 498L281 500L285 502L290 506L293 510L297 515L301 522L302 526L304 534L305 538L305 546L305 552L304 558L302 566L300 570L297 577L293 582L290 586L287 590L282 594L277 598L273 600L267 602L261 604L253 605L245 604L241 602L234 598L230 594L227 590L225 586L222 578L221 570L221 562L222 554L224 546L225 542L228 534L229 530L233 523L236 518L238 514L242 510L246 506L251 502L257 499L261 498" stroke-width="0.8"/><path d="M144 0L144 8L144 16L144 20L144 28L144 32L144 40L143 48L142 56L141 64L140 68L139 76L137 84L136 88L134 96L132 104L131 108L129 116L128 120L126 129L125 137L124 141L123 149L122 157L122 165L122 173L123 181L124 189L125 193L128 201L129 205L132 211L136 217L138 221L141 225L144 229L148 234L152 238L156 242L160 245L165 249L170 253L175 257L180 261L184 264L188 267L192 270L198 273L203 277L209 281L213 284L217 287L221 290L225 293L229 297L233 301L237 305L241 309L245 315L248 321L250 325L253 333L253 337L254 345L253 353L252 357L250 365L248 369L245 377L242 382L239 386L236 390L233 394L229 398L225 402L220 406L215 410L210 414L205 417L201 420L196 422L191 426L184 429L180 431L175 434L168 437L164 439L159 442L152 445L148 447L143 450L136 453L132 456L128 458L121 462L116 465L112 467L107 470L101 474L96 477L92 479L88 482L82 486L77 490L72 493L68 496L64 499L60 502L56 506L51 510L47 514L43 518L39 522L35 526L32 530L28 536L25 542L24 550L26 558L28 562L32 567L36 571L40 575L45 578L50 582L56 586L60 589L64 592L68 595L74 598L80 602L84 605L88 608L92 610L98 614L104 618L108 621L112 624L116 627L121 631L126 635L131 639L135 643L139 647L143 651L147 655L150 659L153 663L156 667L160 673L163 679L166 683L168 689L171 695L172 699L175 707L177 711L179 719L180 726L182 731L183 739L184 747L185 751L186 759L186 767L187 775L187 783L186 791L186 799L185 807L184 811L183 819L181 827L180 832L178 839L176 846L174 851L172 857L170 863L168 867L164 874L161 880L159 884L156 888L152 893L148 898L144 903L140 907L136 911L132 915L128 918L124 921L120 924L113 928L108 930L104 932L96 934L90 936L84 937L76 938L68 938L60 937L52 936L48 935L40 933L35 932L28 929L24 928L16 924L12 922L7 920L0 916" stroke-width="1.6"/><path d="M686 0L687 8L688 16L689 24L689 32L689 40L689 48L689 56L688 64L687 72L686 80L685 84L683 92L682 96L679 104L677 108L674 115L671 120L668 124L665 129L662 133L658 138L654 143L650 147L646 151L642 155L638 159L634 163L630 166L626 170L622 174L618 178L614 181L610 185L606 189L602 193L597 197L593 201L589 206L585 210L581 214L577 219L573 223L569 228L565 233L562 237L559 241L555 245L552 249L549 253L545 257L541 262L537 267L533 271L529 276L525 280L521 284L517 288L513 291L509 294L505 297L500 301L493 305L489 307L485 309L477 312L472 313L465 314L457 315L449 315L441 313L437 312L429 309L425 307L421 305L415 301L409 297L405 293L401 289L397 285L394 281L392 277L389 273L385 266L383 261L381 257L377 249L376 245L373 237L372 233L369 225L368 221L365 213L364 209L362 201L361 197L358 189L357 184L355 177L353 169L352 165L349 157L348 153L346 145L345 140L343 133L341 124L340 120L338 112L337 106L336 100L334 92L333 85L332 80L331 72L330 64L329 56L329 50L329 44L328 36L328 28L329 20L329 16L330 8L331 0" stroke-width="1.6"/><path d="M1600 551L1592 554L1588 555L1580 557L1574 558L1568 560L1560 562L1556 562L1548 564L1540 566L1536 567L1528 568L1520 570L1516 570L1508 572L1500 574L1495 574L1488 576L1480 577L1473 578L1468 579L1460 581L1452 582L1448 583L1440 584L1432 585L1424 586L1420 587L1412 588L1404 588L1395 589L1387 590L1383 591L1375 592L1367 592L1359 593L1351 594L1347 594L1339 595L1331 596L1323 597L1316 598L1311 599L1303 601L1295 602L1291 603L1283 605L1279 606L1271 609L1267 611L1260 614L1255 617L1251 620L1247 624L1243 628L1239 634L1237 639L1235 643L1233 651L1231 658L1230 663L1230 671L1229 679L1228 687L1228 695L1227 703L1227 708L1227 715L1226 723L1225 731L1224 739L1223 746L1222 751L1221 759L1220 767L1219 775L1219 779L1218 787L1217 795L1216 803L1215 811L1215 815L1214 823L1214 831L1214 839L1213 847L1213 855L1214 863L1214 871L1214 880L1215 888L1215 892L1216 900L1216 908L1217 916L1217 924L1218 932L1218 940L1219 948L1219 956L1219 960L1219 968L1219 972L1219 980L1218 988L1217 996" stroke-width="1.6"/><path d="M942 1000L939 992L938 988L936 980L934 972L933 968L931 960L930 956L928 948L926 941L925 936L923 928L921 924L919 916L918 912L915 904L913 900L911 892L909 888L906 881L904 876L902 871L898 863L896 859L894 855L890 847L888 843L886 839L882 833L879 827L877 823L874 819L870 812L868 807L865 803L862 798L858 791L856 787L854 783L850 776L847 771L845 767L842 760L840 755L838 751L835 743L833 739L831 731L830 727L828 719L826 711L825 707L824 699L824 691L824 683L824 675L825 667L826 660L827 655L829 647L830 641L832 635L834 627L836 622L838 615L840 610L842 603L844 598L846 590L847 586L849 578L850 570L850 566L850 560L849 554L847 546L845 542L842 536L838 531L834 526L831 522L827 518L823 514L819 510L814 506L810 502L806 499L802 495L798 492L794 488L790 485L786 481L782 477L778 473L774 469L770 465L766 461L762 457L758 452L754 448L750 443L746 438L743 434L740 430L737 426L734 421L730 415L727 410L724 406L722 401L718 394L716 390L714 385L711 378L709 373L706 365L704 361L702 353L701 349L699 341L698 337L696 329L694 321L694 317L692 309L692 301L691 293L690 285L690 277L690 269L690 261L691 253L691 245L692 237L693 229L694 224L695 217L696 209L698 201L699 197L701 189L702 185L704 177L706 173L709 165L711 161L714 155L717 149L720 145L723 141L727 137L730 133L734 129L739 124L743 120L749 116L754 113L758 110L762 107L766 104L773 100L778 98L782 95L788 92L794 89L798 87L804 84L810 82L814 80L822 77L826 75L834 73L838 71L846 69L850 68L858 66L865 64L870 63L878 62L886 61L894 60L898 60L906 60L914 60L920 60L926 61L934 62L942 63L947 64L954 66L961 68L966 70L972 72L978 75L982 77L988 80L994 84L998 86L1003 89L1007 92L1012 96L1017 100L1021 104L1025 108L1029 112L1033 116L1036 120L1039 124L1043 129L1047 134L1051 140L1053 145L1055 149L1059 154L1062 161L1064 165L1067 172L1069 177L1071 182L1073 189L1075 195L1076 201L1078 209L1079 213L1081 221L1082 229L1083 236L1083 241L1084 249L1084 257L1084 265L1084 273L1084 281L1084 289L1084 297L1083 305L1083 309L1082 317L1081 325L1081 333L1080 341L1080 349L1080 357L1080 365L1081 373L1082 382L1083 386L1085 394L1087 398L1091 403L1095 408L1099 411L1103 414L1111 416L1117 418L1123 418L1131 418L1138 418L1143 417L1151 416L1159 414L1163 413L1171 410L1175 409L1183 406L1187 404L1192 402L1199 398L1203 396L1207 393L1213 390L1219 386L1223 383L1227 379L1231 376L1235 372L1239 368L1243 363L1247 358L1251 353L1253 349L1256 345L1259 340L1263 333L1265 329L1267 324L1270 317L1272 313L1275 305L1277 301L1279 295L1282 289L1283 285L1287 277L1289 273L1291 268L1294 261L1296 257L1299 252L1303 245L1305 241L1308 237L1311 231L1315 225L1318 221L1321 217L1324 213L1327 208L1331 203L1335 198L1339 194L1343 189L1347 185L1351 181L1355 177L1359 173L1363 170L1367 166L1371 163L1375 159L1379 156L1384 153L1389 149L1395 145L1399 141L1404 139L1408 136L1414 133L1420 129L1424 127L1428 124L1436 121L1440 119L1444 116L1452 113L1456 112L1464 109L1468 107L1476 105L1480 103L1488 101L1492 100L1500 98L1507 96L1512 96L1520 94L1528 93L1535 92L1540 92L1548 91L1556 91L1564 91L1572 91L1580 92L1585 92L1592 93L1600 94" stroke-width="1.6"/><path d="M261 538L269 537L273 538L277 544L278 550L277 556L274 562L269 566L265 568L257 566L254 562L252 558L252 550L254 546L257 542L261 538" stroke-width="1.6"/><path d="M129 0L129 8L130 16L130 24L129 32L129 40L128 48L128 52L127 60L126 68L124 76L124 80L122 88L120 96L119 100L117 108L116 114L115 120L113 129L112 133L111 141L110 149L109 157L109 165L109 173L110 181L111 189L112 193L115 201L116 205L120 213L122 217L124 221L128 227L132 232L136 237L140 241L144 245L148 249L152 253L156 257L160 260L164 263L168 267L172 270L177 273L182 277L187 281L192 285L196 289L201 292L205 296L209 300L213 304L217 309L220 313L223 317L225 321L229 329L230 333L231 341L232 349L230 357L229 364L227 369L225 373L221 380L217 386L214 390L210 394L206 398L201 402L196 406L192 409L188 412L184 414L179 418L173 422L168 424L164 427L159 430L152 433L148 436L144 438L137 442L132 444L128 446L122 450L116 453L112 455L107 458L100 462L96 464L92 466L86 470L80 473L76 475L72 478L65 482L60 485L56 487L50 490L44 493L40 496L36 498L28 502L24 504L19 506L12 509L8 510L0 513" stroke-width="0.8"/><path d="M671 0L672 8L672 16L672 24L672 32L671 40L670 48L670 53L668 60L666 68L665 72L662 80L660 84L658 91L655 96L653 100L650 106L646 112L642 116L640 120L636 124L633 129L630 133L626 138L622 142L618 146L614 151L610 155L606 159L602 163L597 167L593 171L589 175L585 179L581 183L577 187L573 192L569 196L565 200L561 204L557 208L553 212L549 217L545 221L542 225L538 229L534 233L530 237L526 241L522 245L518 249L513 253L509 256L505 259L501 262L497 265L491 269L485 272L481 273L473 276L467 277L461 278L453 277L449 276L441 274L437 272L431 269L425 265L421 261L417 258L413 253L410 249L407 245L404 241L401 236L397 229L395 225L393 221L389 213L387 209L385 204L382 197L380 193L377 185L376 181L373 174L371 169L369 162L367 157L365 150L363 145L361 137L359 133L357 124L356 120L354 112L353 108L351 100L349 92L348 88L347 80L346 72L345 67L344 60L343 52L343 44L343 36L343 28L343 20L343 12L344 4L345 0" stroke-width="0.8"/><path d="M1600 535L1592 538L1588 539L1580 541L1575 542L1568 544L1560 546L1556 546L1548 548L1540 550L1536 551L1528 553L1520 554L1516 555L1508 557L1501 558L1496 559L1488 561L1481 562L1476 563L1468 565L1461 566L1456 567L1448 569L1440 570L1436 571L1428 572L1420 573L1413 574L1408 575L1399 576L1391 577L1383 578L1379 578L1371 579L1363 580L1355 581L1347 581L1339 582L1334 582L1327 583L1319 584L1311 584L1303 585L1295 586L1291 587L1283 588L1275 589L1268 590L1263 591L1255 593L1251 595L1243 597L1239 599L1232 602L1227 606L1223 609L1219 614L1216 618L1214 622L1211 631L1211 635L1210 643L1210 651L1210 659L1210 667L1211 674L1211 679L1212 687L1212 695L1212 703L1213 711L1212 719L1212 727L1212 735L1211 743L1211 747L1210 755L1209 763L1208 771L1208 779L1207 784L1206 791L1205 799L1205 807L1204 815L1204 823L1203 831L1203 835L1203 843L1202 851L1202 859L1202 867L1203 876L1203 884L1203 889L1203 896L1204 904L1204 912L1204 920L1205 928L1205 936L1205 944L1205 952L1204 960L1204 968L1203 976L1203 980L1202 988L1201 996" stroke-width="0.8"/><path d="M0 602L8 601L16 602L22 602L28 603L36 605L40 606L48 609L52 610L60 614L64 615L71 618L76 621L80 623L86 627L92 630L96 633L100 635L105 639L110 643L115 647L120 651L124 654L128 658L132 663L136 667L139 671L142 675L145 679L148 684L152 691L154 695L156 700L159 707L161 711L164 719L165 723L167 731L168 737L169 743L171 751L172 759L172 767L172 771L173 779L172 787L172 791L172 799L171 807L169 815L168 819L166 827L164 834L163 839L160 846L158 851L156 855L152 863L150 867L148 871L144 876L140 882L136 887L132 891L128 895L124 898L120 902L116 905L111 908L104 911L100 913L93 916L88 917L80 918L72 919L64 919L56 918L48 917L43 916L36 913L31 912L24 909L20 907L14 904L8 901L4 898" stroke-width="0.8"/><path d="M959 1000L958 996L955 988L954 984L952 976L950 970L949 964L947 956L945 952L943 944L942 940L940 932L938 926L937 920L934 913L933 908L930 900L929 896L926 889L924 884L922 879L919 871L917 867L914 861L912 855L910 851L906 844L904 839L902 835L898 829L895 823L893 819L890 814L886 807L884 803L882 799L878 793L875 787L873 783L870 777L867 771L865 767L862 760L860 755L858 750L855 743L854 739L852 731L850 724L849 719L848 711L847 703L847 695L847 687L848 679L849 671L850 664L852 659L854 651L855 647L858 639L860 635L862 630L866 622L868 618L870 614L874 607L877 602L879 598L882 593L886 586L889 582L891 578L894 572L898 566L899 562L902 554L903 550L904 542L902 536L899 530L896 526L892 522L887 518L882 515L878 512L874 510L868 506L862 503L858 500L854 498L847 494L842 491L838 489L834 486L827 482L822 478L818 476L814 473L810 470L804 466L799 462L794 458L790 454L786 451L782 447L778 443L774 439L770 434L766 430L762 426L759 422L756 418L753 414L750 409L746 403L743 398L740 394L738 389L734 382L732 378L730 373L727 365L725 361L723 353L721 349L719 341L718 337L716 329L715 321L714 316L713 309L712 301L712 293L711 285L711 277L711 269L712 261L713 253L714 245L714 241L716 233L717 225L718 221L721 213L722 209L724 201L726 197L729 189L731 185L734 178L737 173L739 169L742 164L746 158L750 153L753 149L757 145L760 141L764 137L769 133L773 129L778 125L782 121L786 119L790 116L795 112L802 108L806 106L810 104L817 100L822 98L826 96L834 93L838 91L846 88L850 87L858 85L862 84L870 82L878 81L882 80L890 79L898 79L906 79L914 79L922 80L926 80L934 82L942 84L946 85L954 87L958 88L966 92L970 94L976 96L982 100L986 103L990 105L995 108L1000 112L1005 116L1009 120L1013 124L1017 129L1021 133L1024 137L1027 141L1031 145L1035 151L1038 157L1040 161L1043 165L1047 173L1048 177L1051 182L1053 189L1055 193L1057 201L1059 206L1060 213L1062 221L1063 225L1064 233L1065 241L1066 249L1066 257L1067 265L1067 273L1066 281L1066 289L1065 297L1064 305L1064 313L1063 320L1062 325L1061 333L1060 341L1059 348L1058 353L1057 361L1056 369L1055 377L1054 382L1053 390L1053 398L1052 406L1052 414L1052 422L1053 430L1055 435L1057 442L1060 446L1063 450L1069 454L1075 456L1083 457L1091 457L1099 456L1107 455L1111 454L1119 452L1125 450L1131 448L1137 446L1143 444L1148 442L1155 439L1159 437L1167 434L1171 432L1176 430L1183 426L1187 425L1192 422L1199 418L1203 416L1207 414L1214 410L1219 406L1223 403L1227 401L1231 398L1236 394L1241 390L1245 386L1249 382L1252 378L1256 373L1259 369L1263 363L1267 357L1269 353L1272 349L1275 342L1278 337L1279 333L1283 325L1285 321L1287 315L1289 309L1291 304L1294 297L1296 293L1299 285L1301 281L1303 275L1306 269L1308 265L1311 259L1314 253L1317 249L1319 245L1323 238L1327 233L1329 229L1332 225L1335 221L1339 215L1343 210L1347 206L1351 201L1355 197L1359 193L1363 189L1367 185L1371 181L1375 177L1379 174L1383 170L1387 167L1391 164L1396 161L1402 157L1407 153L1412 150L1416 147L1420 145L1427 141L1432 138L1436 136L1443 133L1448 130L1452 128L1460 125L1464 123L1472 121L1476 119L1484 117L1488 115L1496 113L1500 112L1508 111L1516 109L1520 108L1528 107L1536 107L1544 106L1552 106L1560 106L1568 106L1576 106L1584 107L1592 108L1596 109" stroke-width="0.8"/><path d="M115 0L115 8L115 16L116 24L115 32L115 40L115 48L114 56L113 64L112 68L111 76L109 84L108 90L107 96L105 104L104 109L103 116L101 124L100 130L99 137L98 145L97 153L97 161L97 169L98 177L99 185L100 192L101 197L104 205L106 209L108 214L112 221L114 225L117 229L120 234L124 239L128 244L132 248L136 252L140 256L144 260L148 264L152 267L156 271L160 274L164 277L169 281L173 285L178 289L182 293L187 297L191 301L194 305L198 309L201 313L205 319L208 325L210 329L212 337L213 341L213 349L213 354L211 361L209 368L206 373L203 378L201 382L196 387L192 391L188 395L184 399L180 402L176 406L171 410L165 414L160 417L156 419L152 422L146 426L140 429L136 431L132 434L125 438L120 440L116 442L110 446L104 449L100 451L95 454L88 457L84 459L79 462L72 465L68 467L62 470L56 473L52 475L44 478L40 480L34 482L28 484L22 486L16 488L8 490L4 490" stroke-width="0.8"/><path d="M658 0L659 8L659 16L658 24L658 32L657 36L656 44L654 52L653 56L650 64L649 68L646 76L644 80L642 85L638 92L635 96L633 100L630 105L626 111L622 116L618 120L615 124L611 129L608 133L604 137L600 141L596 145L592 149L588 153L584 157L580 161L576 165L572 169L568 173L563 177L559 181L555 185L551 189L546 193L542 197L537 201L533 204L529 208L525 211L521 215L517 218L513 221L508 225L502 229L497 232L493 234L486 237L481 239L473 241L469 242L461 242L456 241L449 239L443 237L437 234L433 231L429 228L425 224L421 220L417 215L413 210L410 205L407 201L404 197L401 191L398 185L396 181L393 176L390 169L388 165L385 158L383 153L381 148L378 141L376 137L374 129L372 124L370 116L368 112L366 104L365 100L363 92L361 84L361 80L359 72L358 64L357 57L356 52L356 44L355 36L355 28L356 20L356 12L357 5L358 0" stroke-width="0.8"/><path d="M1600 521L1595 522L1588 524L1580 526L1576 527L1568 529L1563 530L1556 532L1548 534L1544 534L1536 536L1528 538L1524 539L1516 541L1509 542L1504 543L1496 545L1491 546L1484 548L1476 550L1472 551L1464 552L1456 554L1452 555L1444 556L1436 558L1432 559L1424 560L1416 561L1410 562L1404 563L1395 564L1387 565L1379 566L1375 566L1367 567L1359 568L1351 568L1343 569L1335 569L1327 570L1321 570L1315 571L1307 571L1299 571L1291 572L1283 572L1275 573L1267 573L1259 574L1252 574L1247 575L1239 576L1231 577L1223 578L1219 579L1211 581L1206 582L1199 585L1195 588L1191 591L1187 595L1183 602L1182 606L1182 614L1182 622L1183 628L1184 635L1186 643L1187 647L1189 655L1191 663L1192 667L1193 675L1195 683L1195 687L1197 695L1198 703L1198 711L1199 719L1199 727L1199 731L1199 735L1199 743L1198 751L1198 759L1197 767L1197 775L1196 783L1195 791L1195 795L1194 803L1193 811L1193 819L1192 827L1192 835L1192 843L1191 851L1191 859L1191 863L1191 871L1191 880L1191 888L1191 896L1191 900L1191 908L1191 916L1191 924L1191 932L1191 936L1191 944L1190 952L1190 960L1189 968L1188 976L1187 982L1186 988L1184 996" stroke-width="0.8"/><path d="M0 633L8 631L12 630L20 629L28 629L36 629L44 630L48 631L56 633L61 635L68 637L72 639L80 642L84 644L88 647L95 651L100 654L104 657L108 660L112 664L116 668L120 672L124 676L128 681L132 686L135 691L138 695L140 700L144 707L146 711L148 717L150 723L152 729L154 735L156 743L157 747L158 755L159 763L159 771L159 779L159 787L158 795L157 803L156 808L155 815L153 823L152 827L149 835L147 839L144 846L142 851L139 855L136 860L132 866L128 871L124 876L120 880L116 883L112 886L108 889L104 892L96 895L92 897L84 899L80 900L72 901L64 901L56 900L52 900L44 898L37 896L32 894L28 892L20 888L16 886L12 883L6 880L1 876" stroke-width="0.8"/><path d="M976 1000L974 995L972 988L970 982L968 976L966 969L965 964L963 956L962 952L959 944L958 940L956 932L954 926L952 920L950 913L949 908L946 901L945 896L942 889L940 884L938 879L935 871L934 867L930 860L928 855L926 851L923 843L921 839L918 835L915 827L912 823L910 819L906 812L904 807L902 803L898 797L895 791L893 787L890 781L887 775L886 771L882 763L880 759L878 753L876 747L874 741L872 735L871 727L870 723L869 715L868 707L868 699L868 691L869 683L870 678L872 671L874 663L876 659L878 652L881 647L883 643L886 637L890 631L893 627L896 622L899 618L902 614L906 609L910 605L914 601L918 597L922 593L926 590L931 586L936 582L942 578L946 575L950 573L954 570L962 566L966 564L970 562L978 559L982 557L990 554L994 553L1003 551L1007 550L1015 548L1023 546L1027 545L1035 544L1042 542L1047 541L1055 539L1059 538L1067 536L1071 534L1079 531L1083 529L1087 526L1093 522L1098 518L1102 514L1106 510L1110 506L1114 502L1117 498L1121 494L1126 490L1130 486L1135 482L1139 479L1143 475L1147 472L1151 469L1156 466L1162 462L1167 459L1171 456L1175 453L1181 450L1187 446L1191 443L1195 441L1200 438L1206 434L1211 431L1215 428L1219 425L1225 422L1230 418L1235 414L1239 411L1243 407L1247 404L1251 400L1255 396L1259 392L1263 388L1267 383L1271 378L1274 373L1276 369L1279 365L1283 358L1285 353L1287 349L1291 341L1292 337L1295 330L1297 325L1299 320L1302 313L1303 309L1306 301L1308 297L1311 289L1313 285L1315 280L1318 273L1320 269L1323 263L1327 257L1329 253L1331 249L1335 242L1339 237L1342 233L1345 229L1348 225L1351 220L1355 215L1359 211L1363 206L1367 202L1371 198L1375 194L1379 190L1383 187L1387 183L1391 180L1395 177L1401 173L1406 169L1412 165L1416 162L1420 160L1424 157L1431 153L1436 150L1440 148L1447 145L1452 142L1456 140L1464 137L1468 136L1476 133L1480 131L1488 129L1492 128L1500 126L1505 124L1512 123L1520 122L1528 121L1532 120L1540 119L1548 119L1556 119L1564 119L1572 119L1580 120L1584 121L1592 122L1600 123" stroke-width="0.8"/><path d="M870 100L878 99L886 98L894 97L902 97L910 97L918 98L926 99L933 100L938 102L946 104L950 106L958 108L962 111L966 113L973 116L978 120L982 122L986 125L990 129L995 133L999 137L1003 141L1007 145L1011 149L1015 154L1019 159L1022 165L1024 169L1027 173L1031 180L1033 185L1035 189L1038 197L1039 201L1042 209L1043 213L1045 221L1046 229L1047 233L1048 241L1049 249L1050 257L1050 265L1050 273L1050 281L1049 289L1048 297L1047 305L1047 311L1046 317L1044 325L1043 333L1042 337L1040 345L1039 351L1037 357L1035 365L1034 369L1031 378L1030 382L1028 390L1026 394L1023 402L1022 406L1019 414L1017 418L1015 422L1011 430L1008 434L1006 438L1003 442L998 447L994 452L990 456L986 460L982 463L978 466L972 470L966 473L962 474L954 477L950 479L942 480L934 482L930 482L922 482L914 482L909 482L902 481L894 480L886 478L882 478L874 475L869 474L862 471L858 470L850 467L846 465L840 462L834 459L830 457L825 454L819 450L814 447L810 444L806 441L802 438L797 434L793 430L788 426L784 422L781 418L777 414L774 410L770 405L766 400L762 394L759 390L757 386L754 381L750 373L748 369L746 364L743 357L742 353L739 345L738 341L735 333L734 326L733 321L731 313L730 305L730 298L730 293L729 285L729 277L730 269L730 265L731 257L732 249L733 241L734 237L736 229L738 223L740 217L742 211L744 205L746 200L749 193L751 189L754 184L758 177L761 173L764 169L767 165L770 160L774 156L778 151L782 147L786 143L790 140L794 136L799 133L805 129L810 125L814 122L818 120L825 116L830 114L834 112L842 109L846 107L854 104L858 103L866 101L870 100" stroke-width="0.8"/><path d="M100 0L101 4L101 12L101 20L102 28L101 36L101 44L100 52L100 56L99 64L98 72L97 80L96 84L94 92L93 100L92 104L91 112L89 120L88 126L87 133L86 141L85 149L85 157L85 165L85 173L86 181L88 189L89 193L91 201L92 205L96 213L98 217L100 222L104 229L107 233L110 237L113 241L116 245L120 249L124 254L128 258L132 262L136 266L140 270L144 273L148 277L153 281L157 285L162 289L166 293L170 297L174 301L177 305L181 309L184 314L188 321L191 325L193 329L195 337L196 345L196 353L194 361L192 366L189 373L187 378L184 382L180 386L176 390L172 394L168 398L164 402L159 406L153 410L148 413L144 416L140 418L134 422L128 425L124 428L120 430L113 434L108 436L104 439L98 442L92 445L88 447L81 450L76 452L72 454L64 457L60 459L53 462L48 464L42 466L36 468L29 470L24 471L16 473L10 474L4 475" stroke-width="0.8"/><path d="M646 0L646 8L646 16L646 24L645 28L644 36L642 44L641 48L639 56L637 60L634 68L632 72L630 78L626 84L624 88L621 92L618 98L614 103L610 108L606 112L603 116L599 120L596 124L592 129L588 133L584 137L580 141L576 145L572 149L567 153L563 157L558 161L553 165L549 168L545 171L541 175L537 178L533 181L528 185L523 189L517 192L513 195L509 197L503 201L497 204L493 206L485 208L481 209L473 211L465 211L457 209L453 208L445 205L441 202L437 200L433 197L429 193L425 189L421 184L417 179L413 174L410 169L407 165L405 161L401 154L398 149L396 145L393 138L391 133L389 129L386 120L384 116L381 108L380 104L378 96L376 92L374 84L373 78L372 72L370 64L369 56L369 52L368 44L367 36L367 28L367 20L368 12L369 4L369 0" stroke-width="0.8"/><path d="M1600 507L1592 509L1588 510L1580 513L1574 514L1568 515L1560 517L1556 518L1548 520L1540 522L1536 522L1528 524L1520 526L1516 527L1508 529L1502 530L1496 532L1488 533L1484 534L1476 536L1468 538L1464 539L1456 541L1451 542L1444 544L1436 546L1432 546L1424 548L1416 549L1409 550L1404 551L1395 552L1387 553L1379 554L1375 554L1367 555L1359 556L1351 556L1343 557L1335 557L1327 557L1319 557L1311 557L1303 557L1295 557L1287 557L1279 557L1271 557L1263 556L1255 556L1247 555L1239 555L1235 554L1227 553L1219 552L1211 551L1207 550L1199 548L1194 546L1187 543L1183 541L1178 538L1174 534L1171 530L1167 522L1167 518L1167 510L1167 506L1170 498L1172 494L1175 489L1179 483L1183 478L1187 474L1191 470L1195 466L1199 462L1203 459L1207 456L1211 452L1215 449L1219 446L1225 442L1230 438L1235 434L1239 430L1243 427L1247 424L1251 420L1255 417L1259 413L1263 409L1267 405L1271 400L1275 395L1279 390L1282 386L1285 382L1287 378L1291 371L1294 365L1296 361L1299 354L1301 349L1303 344L1306 337L1307 333L1310 325L1312 321L1315 313L1316 309L1319 301L1321 297L1323 291L1326 285L1327 281L1331 273L1333 269L1335 265L1339 258L1342 253L1345 249L1347 245L1351 239L1355 234L1359 229L1362 225L1366 221L1369 217L1373 213L1377 209L1381 205L1385 201L1389 197L1394 193L1399 189L1404 185L1408 182L1412 179L1416 176L1421 173L1427 169L1432 166L1436 164L1441 161L1448 157L1452 155L1457 153L1464 150L1468 148L1476 145L1480 144L1488 141L1492 140L1500 138L1506 137L1512 135L1520 134L1528 133L1532 132L1540 132L1548 131L1556 131L1564 131L1572 132L1578 133L1584 133L1592 134L1600 136" stroke-width="0.8"/><path d="M0 661L5 659L12 656L16 655L24 653L32 652L40 651L48 652L56 653L63 655L68 656L75 659L80 661L84 663L90 667L96 671L100 674L104 677L108 681L112 685L116 690L120 695L123 699L126 703L128 707L132 715L134 719L136 724L139 731L140 737L142 743L144 751L144 756L145 763L146 771L146 779L145 787L145 795L144 799L143 807L141 815L139 819L137 827L135 831L132 837L129 843L126 847L124 851L120 856L116 860L112 864L108 868L103 871L97 876L92 878L87 880L80 882L72 883L64 883L56 882L48 881L44 879L36 876L32 875L26 871L20 868L16 865L12 863L8 859L3 855" stroke-width="0.8"/><path d="M995 1000L993 996L990 989L988 984L986 978L984 972L982 966L981 960L978 953L977 948L974 940L973 936L971 928L970 924L967 916L966 912L963 904L962 900L959 892L958 888L955 880L953 876L950 869L948 863L946 859L943 851L941 847L938 842L935 835L933 831L930 826L927 819L925 815L922 810L919 803L917 799L914 794L911 787L909 783L906 778L903 771L902 767L898 759L897 755L894 747L893 743L891 735L890 731L889 723L888 715L888 707L888 699L889 691L890 685L892 679L894 671L896 667L898 661L902 655L904 651L907 647L910 642L914 637L918 632L922 628L926 624L930 620L934 617L938 614L943 610L949 606L954 603L958 601L964 598L970 595L974 594L982 591L986 589L994 587L998 586L1007 584L1015 583L1019 582L1027 581L1035 580L1043 579L1051 579L1059 579L1067 579L1075 580L1083 580L1091 582L1095 583L1103 585L1108 586L1115 589L1119 591L1124 594L1129 598L1133 602L1137 606L1141 610L1144 614L1147 618L1151 624L1155 631L1157 635L1159 639L1163 645L1165 651L1167 655L1171 663L1172 667L1175 674L1177 679L1179 686L1180 691L1182 699L1183 704L1184 711L1185 719L1186 727L1186 735L1186 743L1186 751L1186 759L1186 767L1185 775L1184 783L1184 791L1183 799L1183 803L1182 811L1182 819L1181 827L1180 835L1180 843L1180 851L1179 859L1179 865L1179 871L1179 880L1178 888L1178 896L1178 904L1178 912L1177 920L1177 928L1177 936L1176 944L1175 952L1175 956L1174 964L1172 972L1171 979L1170 984L1168 992L1166 996" stroke-width="0.8"/><path d="M878 116L886 115L894 115L902 115L910 115L918 116L922 117L930 118L938 120L942 122L949 124L954 127L958 129L965 133L970 136L974 139L978 142L982 145L986 149L990 153L994 157L998 162L1003 167L1007 173L1009 177L1012 181L1015 186L1018 193L1020 197L1023 204L1024 209L1027 216L1028 221L1030 229L1031 233L1032 241L1033 249L1034 257L1034 265L1034 273L1034 281L1033 289L1032 297L1031 305L1031 309L1029 317L1027 325L1026 329L1024 337L1023 343L1021 349L1019 355L1016 361L1015 366L1011 373L1010 378L1007 384L1004 390L1001 394L998 398L994 404L991 410L987 414L984 418L980 422L976 426L971 430L966 433L962 436L958 439L953 442L946 445L942 446L934 449L930 450L922 452L914 453L906 453L898 453L890 453L882 452L874 450L870 449L862 447L858 446L850 443L846 441L838 438L834 436L830 433L824 430L818 426L814 423L810 420L806 417L802 413L798 409L794 405L790 401L786 396L782 391L778 386L775 382L772 378L770 373L766 366L764 361L762 357L758 349L757 345L754 337L753 333L751 325L750 321L748 313L747 305L747 297L746 289L746 281L746 273L747 265L748 257L749 249L750 245L752 237L754 229L755 225L758 217L760 213L762 208L765 201L767 197L770 192L774 185L777 181L780 177L783 173L786 169L790 165L794 160L798 156L802 153L807 149L812 145L818 141L822 138L826 135L831 133L838 129L842 127L849 124L854 122L860 120L866 119L874 117L878 116" stroke-width="0.8"/><path d="M85 0L86 8L86 16L87 24L87 32L87 40L86 48L86 56L85 64L84 69L83 76L82 84L81 92L80 96L78 104L77 112L76 118L75 124L74 133L73 141L73 149L72 157L73 165L73 173L74 181L76 189L77 193L79 201L80 205L84 213L86 217L88 222L92 229L95 233L98 237L101 241L104 246L108 250L112 255L116 259L120 263L124 267L128 271L132 275L136 279L140 283L144 287L148 291L152 295L156 299L160 304L164 308L168 313L171 317L173 321L176 327L179 333L180 341L181 345L181 353L180 357L177 365L176 369L172 375L168 381L165 386L161 390L157 394L152 397L148 401L144 404L140 407L136 410L130 414L124 417L120 420L116 422L110 426L104 429L100 431L94 434L88 437L84 438L77 442L72 444L67 446L60 448L56 450L48 453L44 454L36 456L29 458L24 459L16 460L8 461L0 462" stroke-width="0.8"/><path d="M635 0L635 8L635 16L634 24L633 28L632 36L630 44L628 48L626 56L624 60L622 66L618 72L616 76L614 81L610 87L606 92L603 96L600 100L596 104L593 108L589 112L585 117L581 121L577 125L573 129L569 133L565 137L560 141L555 145L550 149L545 152L541 155L537 158L533 161L528 165L522 169L517 171L513 173L507 177L501 179L497 181L489 183L481 185L477 185L469 185L465 184L457 182L453 181L445 177L441 174L437 171L433 168L429 164L425 159L421 154L417 149L414 145L411 141L409 136L405 129L403 124L401 120L397 112L395 108L393 102L391 96L389 91L387 84L385 77L384 72L382 64L381 56L380 52L379 44L379 36L379 28L379 20L379 12L380 4" stroke-width="0.8"/><path d="M1600 494L1592 496L1587 498L1580 500L1572 502L1568 503L1560 504L1552 506L1548 507L1540 509L1533 510L1528 511L1520 513L1514 514L1508 516L1500 517L1496 518L1488 520L1481 522L1476 523L1468 525L1464 526L1456 528L1449 530L1444 531L1436 533L1431 534L1424 536L1416 537L1409 538L1404 539L1395 540L1387 541L1379 542L1375 542L1367 543L1359 544L1351 544L1343 544L1335 544L1327 544L1319 544L1311 544L1303 543L1295 543L1290 542L1283 541L1275 540L1267 539L1263 538L1255 536L1247 534L1243 533L1236 530L1231 528L1227 526L1222 522L1218 518L1214 514L1211 507L1210 502L1210 494L1211 490L1215 482L1217 478L1220 474L1223 470L1227 465L1231 461L1235 457L1239 453L1243 449L1247 445L1251 441L1255 437L1259 434L1263 430L1267 426L1271 421L1275 417L1279 412L1283 407L1287 402L1290 398L1293 394L1296 390L1299 383L1302 378L1304 373L1307 367L1309 361L1311 357L1314 349L1316 345L1318 337L1320 333L1322 325L1324 321L1326 313L1328 309L1331 301L1332 297L1335 290L1338 285L1339 281L1343 273L1345 269L1348 265L1351 259L1355 253L1358 249L1360 245L1363 241L1367 235L1371 230L1375 226L1379 221L1383 217L1387 213L1391 209L1395 205L1399 202L1404 199L1408 195L1412 192L1416 189L1422 185L1428 181L1432 178L1436 176L1441 173L1448 169L1452 167L1457 165L1464 162L1468 160L1476 157L1480 156L1488 153L1492 152L1500 150L1504 149L1512 147L1520 146L1527 145L1532 144L1540 143L1548 143L1556 143L1564 143L1572 144L1579 145L1584 145L1592 147L1600 148" stroke-width="0.8"/><path d="M0 691L4 688L8 685L12 682L19 679L24 676L30 675L36 673L44 673L52 673L60 674L64 675L72 677L76 679L83 683L88 686L92 689L96 692L100 695L104 700L108 704L112 710L116 715L118 719L120 724L123 731L125 735L127 743L128 747L130 755L131 763L132 771L132 779L131 787L130 795L129 803L128 807L125 815L123 819L120 826L117 831L115 835L112 839L108 844L104 848L100 852L95 855L88 859L84 861L76 863L72 863L64 864L59 863L52 862L44 860L40 858L34 855L28 852L24 849L20 846L16 843L12 839L8 835L4 831L0 827" stroke-width="0.8"/><path d="M1016 1000L1013 996L1011 990L1008 984L1006 980L1003 972L1001 968L998 960L997 956L994 949L993 944L990 936L989 932L986 924L985 920L982 912L981 908L978 900L977 896L974 889L973 884L970 878L968 871L966 867L963 859L961 855L958 850L955 843L953 839L950 833L948 827L946 823L942 817L939 811L937 807L934 801L931 795L930 791L926 784L924 779L922 775L919 767L917 763L915 755L913 751L911 743L910 739L909 731L908 723L907 715L907 707L908 699L910 691L911 687L914 679L915 675L918 669L922 663L924 659L927 655L931 651L934 646L938 642L943 639L948 635L953 631L958 627L962 625L966 622L974 619L978 617L984 614L990 612L997 610L1003 609L1011 607L1016 606L1023 606L1031 605L1039 605L1047 605L1055 605L1063 606L1068 606L1075 608L1083 610L1087 611L1095 614L1099 616L1105 618L1111 622L1115 625L1119 628L1123 631L1127 635L1131 639L1135 643L1139 647L1143 652L1147 658L1150 663L1152 667L1155 671L1159 679L1160 683L1163 689L1165 695L1167 702L1168 707L1170 715L1171 720L1172 727L1173 735L1173 743L1173 751L1173 759L1173 767L1173 775L1172 783L1172 791L1171 799L1171 803L1170 811L1170 819L1169 827L1168 835L1168 843L1167 851L1167 855L1166 863L1166 871L1165 880L1165 888L1164 896L1164 904L1163 912L1163 917L1162 924L1162 932L1161 940L1159 948L1159 952L1157 960L1156 968L1155 972L1152 980L1151 984L1148 992L1146 996" stroke-width="0.8"/><path d="M890 132L898 132L906 132L910 133L918 134L926 136L930 137L938 139L942 141L950 145L954 147L958 149L963 153L969 157L973 161L978 165L982 169L985 173L988 177L991 181L994 185L998 192L1001 197L1003 201L1007 208L1008 213L1011 219L1012 225L1014 233L1015 237L1017 245L1018 253L1018 261L1018 269L1018 277L1018 285L1017 293L1016 301L1015 308L1013 313L1012 321L1010 325L1008 333L1007 338L1004 345L1002 349L998 357L996 361L994 365L990 372L987 378L985 382L982 386L978 390L974 394L970 399L966 403L962 406L958 410L952 414L946 417L942 419L937 422L930 424L926 426L918 428L910 429L906 430L898 430L890 430L884 430L878 429L870 428L863 426L858 424L851 422L846 420L842 418L835 414L830 411L826 408L822 406L817 402L812 398L808 394L804 390L800 386L797 382L793 378L790 373L786 367L783 361L780 357L778 352L775 345L773 341L770 333L769 329L767 321L766 317L764 309L763 301L763 293L762 285L762 277L763 269L764 261L765 253L766 249L768 241L770 233L771 229L774 222L776 217L778 213L782 205L784 201L787 197L790 192L794 186L798 181L802 177L806 173L810 169L814 165L818 161L822 158L826 155L830 153L837 149L842 146L846 144L854 141L858 139L866 137L870 136L878 134L886 133L890 132" stroke-width="0.8"/><path d="M66 0L68 8L68 12L69 20L70 28L70 36L70 44L69 52L69 60L68 68L68 72L67 80L65 88L64 96L64 100L62 108L61 116L60 124L60 129L59 137L59 145L59 153L59 161L60 169L60 173L61 181L63 189L64 193L67 201L68 205L72 213L74 217L76 222L80 229L83 233L85 237L88 241L92 246L96 251L100 256L104 260L108 264L112 269L116 273L120 277L124 281L128 285L132 289L136 293L140 297L144 301L147 305L151 309L154 313L156 317L160 324L163 329L164 334L166 341L166 349L165 357L164 361L161 369L158 373L156 378L152 382L148 386L144 390L140 394L136 398L131 402L125 406L120 409L116 412L112 414L106 418L100 421L96 423L90 426L84 429L80 430L72 434L68 435L61 438L56 440L49 442L44 443L36 445L32 446L24 448L16 449L8 449L0 450" stroke-width="1.6"/><path d="M623 0L624 8L623 16L622 24L622 28L620 36L618 44L616 48L614 55L611 60L609 64L606 71L602 76L600 80L597 84L593 89L589 94L585 99L581 103L577 108L573 112L569 115L565 119L561 123L557 126L553 129L549 133L544 137L538 141L533 144L529 146L525 149L518 153L513 155L509 157L501 159L497 161L489 162L481 163L473 163L465 162L461 161L453 157L449 155L445 152L440 149L436 145L432 141L428 137L425 133L421 127L417 121L414 116L412 112L409 107L406 100L404 96L401 88L400 84L397 76L396 72L394 64L393 59L392 52L391 44L390 36L390 28L390 20L390 12L391 4" stroke-width="1.6"/><path d="M1600 482L1592 484L1586 486L1580 488L1572 489L1568 490L1560 492L1552 494L1548 495L1540 496L1532 498L1528 499L1520 500L1512 502L1508 503L1500 505L1494 506L1488 508L1480 510L1476 511L1468 513L1462 514L1456 516L1448 518L1444 519L1436 520L1428 522L1424 523L1416 525L1408 526L1404 527L1395 528L1387 529L1379 530L1373 530L1367 530L1359 531L1351 531L1343 531L1335 531L1327 530L1323 530L1315 529L1307 528L1299 527L1295 526L1287 524L1279 522L1275 521L1269 518L1263 515L1259 512L1255 509L1251 505L1247 498L1246 494L1246 486L1247 482L1251 474L1253 470L1255 466L1259 460L1263 455L1267 450L1271 446L1274 442L1278 438L1281 434L1284 430L1287 426L1291 421L1295 415L1299 410L1302 406L1304 402L1307 396L1311 390L1313 386L1315 380L1318 373L1319 369L1322 361L1324 357L1326 349L1328 345L1330 337L1331 333L1334 325L1335 321L1338 313L1339 309L1342 301L1344 297L1347 289L1349 285L1351 280L1355 273L1357 269L1360 265L1363 259L1367 253L1370 249L1373 245L1376 241L1379 237L1383 232L1387 228L1391 223L1395 219L1399 216L1404 212L1408 208L1412 205L1417 201L1422 197L1428 193L1432 191L1436 188L1441 185L1448 181L1452 179L1456 177L1464 173L1468 171L1475 169L1480 167L1486 165L1492 163L1500 161L1504 160L1512 158L1519 157L1524 156L1532 155L1540 154L1548 154L1556 154L1564 154L1572 155L1580 156L1584 157L1592 158L1600 160" stroke-width="1.6"/><path d="M0 735L3 727L6 723L8 719L12 714L16 710L20 707L26 703L32 699L36 698L44 696L52 695L60 696L68 698L72 699L79 703L84 706L88 709L92 713L96 717L100 722L103 727L105 731L108 737L111 743L112 748L114 755L115 763L116 771L116 779L115 787L114 795L112 801L110 807L108 811L104 819L101 823L98 827L94 831L88 835L84 838L80 840L72 842L64 842L56 842L48 839L44 838L39 835L33 831L28 828L24 824L20 820L16 815L13 811L10 807L8 803L4 796L2 791L0 786" stroke-width="1.6"/><path d="M1044 1000L1040 996L1037 992L1034 988L1031 982L1027 976L1025 972L1023 968L1019 960L1017 956L1015 949L1012 944L1011 939L1008 932L1006 928L1003 920L1002 916L999 908L998 904L994 896L993 892L990 885L988 880L986 875L983 867L981 863L978 857L976 851L974 847L970 840L968 835L966 831L962 823L960 819L958 815L954 807L952 803L950 799L947 791L945 787L942 782L940 775L938 771L935 763L934 759L931 751L930 747L928 739L927 731L927 723L927 715L927 707L929 699L930 693L933 687L934 683L938 676L941 671L944 667L948 663L952 659L956 655L961 651L966 647L970 644L974 642L980 639L986 636L990 634L998 632L1003 630L1011 628L1019 627L1023 627L1031 626L1039 626L1047 626L1055 626L1059 627L1067 628L1075 630L1079 632L1087 635L1091 636L1095 639L1103 643L1107 645L1111 648L1115 651L1119 655L1123 659L1127 663L1131 667L1135 673L1139 678L1141 683L1144 687L1147 693L1149 699L1151 703L1154 711L1155 715L1157 723L1158 731L1159 737L1160 743L1160 751L1160 759L1160 767L1160 775L1160 783L1159 791L1159 795L1158 803L1157 811L1157 819L1156 827L1155 835L1155 839L1154 847L1153 855L1152 863L1151 871L1151 877L1150 884L1149 892L1149 900L1148 908L1147 914L1146 920L1145 928L1143 936L1143 940L1141 948L1139 955L1137 960L1135 968L1133 972L1131 977L1127 984L1125 988L1123 992L1119 997" stroke-width="1.6"/><path d="M878 152L886 151L894 150L902 150L910 151L918 152L922 153L930 156L934 157L942 161L946 163L950 166L955 169L960 173L964 177L969 181L972 185L976 189L979 193L982 198L986 205L988 209L990 213L994 221L995 225L997 233L999 237L1000 245L1001 253L1002 261L1002 269L1002 277L1002 285L1001 293L999 301L998 306L997 313L994 321L993 325L990 332L988 337L986 342L983 349L980 353L978 357L974 363L970 368L966 373L963 378L959 382L954 385L950 389L946 392L942 394L937 398L930 401L926 402L918 405L914 406L906 408L898 409L890 409L882 409L874 407L866 406L862 404L854 402L850 400L845 398L838 394L834 391L830 388L826 385L822 382L817 378L813 373L810 369L806 365L802 360L798 353L796 349L794 345L790 338L788 333L786 327L784 321L782 313L781 309L780 301L779 293L779 285L779 277L779 269L780 261L782 253L783 249L785 241L786 237L789 229L791 225L794 218L797 213L799 209L802 204L806 198L810 193L814 189L818 185L822 181L826 177L830 174L834 171L838 168L844 165L850 161L854 159L861 157L866 155L874 153L878 152" stroke-width="1.6"/><path d="M612 0L613 8L612 16L611 24L610 31L608 36L606 44L604 48L602 54L598 60L596 64L593 69L589 75L586 80L582 84L579 88L576 92L572 96L568 100L564 104L559 108L554 112L549 116L545 119L541 122L537 125L531 129L525 132L521 134L516 137L509 139L505 141L497 143L489 144L481 144L473 143L465 141L461 140L455 137L449 133L445 130L441 127L437 123L433 118L429 113L426 108L423 104L421 100L417 93L415 88L413 84L410 76L409 72L406 64L405 60L403 52L402 44L401 36L401 32L401 24L401 16L401 12L402 4" stroke-width="0.8"/><path d="M0 45L2 40L4 36L8 29L11 24L14 20L17 16L22 12L28 10L34 12L38 16L40 20L43 28L44 32L45 40L46 48L46 56L46 64L46 72L45 80L45 88L44 96L44 100L43 108L42 116L42 124L42 133L42 141L42 149L43 157L44 165L44 169L46 177L48 185L49 189L52 197L53 201L56 208L59 213L61 217L64 223L68 229L70 233L73 237L76 242L80 247L84 252L88 256L92 261L96 265L100 269L103 273L107 277L111 281L115 285L119 289L123 293L126 297L130 301L133 305L137 309L140 314L144 321L147 325L149 329L151 337L152 345L152 353L150 361L148 365L144 373L141 378L138 382L134 386L130 390L125 394L120 397L116 400L112 403L108 406L102 410L96 413L92 415L86 418L80 420L76 422L68 425L64 427L56 430L52 431L44 433L40 434L32 436L24 437L16 438L12 438L4 438" stroke-width="0.8"/><path d="M1600 470L1592 473L1588 474L1580 476L1572 478L1568 479L1560 480L1552 482L1548 483L1540 484L1532 486L1528 487L1520 488L1512 490L1508 490L1500 492L1492 494L1488 495L1480 497L1474 498L1468 500L1460 502L1456 503L1448 505L1441 506L1436 507L1428 509L1423 510L1416 512L1408 513L1400 514L1395 515L1387 516L1379 516L1371 517L1363 517L1355 517L1347 516L1339 516L1331 515L1326 514L1319 513L1311 511L1307 509L1300 506L1295 504L1291 501L1287 498L1283 492L1280 486L1280 478L1282 470L1283 466L1287 458L1289 454L1292 450L1295 444L1299 438L1302 434L1304 430L1307 425L1311 418L1314 414L1316 410L1319 403L1322 398L1323 394L1327 386L1328 382L1331 373L1332 369L1335 361L1336 357L1338 349L1339 344L1341 337L1343 330L1345 325L1347 317L1349 313L1351 306L1353 301L1355 296L1358 289L1360 285L1363 279L1366 273L1369 269L1371 265L1375 258L1379 253L1382 249L1385 245L1389 241L1392 237L1396 233L1400 229L1404 225L1408 221L1413 217L1417 213L1423 209L1428 205L1432 202L1436 200L1440 197L1447 193L1452 190L1456 188L1462 185L1468 182L1472 181L1480 177L1484 176L1492 173L1496 172L1504 170L1511 169L1516 168L1524 166L1532 166L1540 165L1548 165L1556 165L1564 165L1572 166L1580 167L1588 169L1592 170L1600 172" stroke-width="0.8"/><path d="M874 172L882 170L890 169L898 169L906 170L914 171L920 173L926 175L931 177L938 181L942 183L946 186L950 189L954 193L958 197L962 202L966 207L970 213L972 217L974 221L978 229L979 233L982 241L983 245L984 253L985 261L986 269L985 277L985 285L984 293L982 300L981 305L979 313L978 317L975 325L973 329L970 334L966 341L964 345L961 349L958 353L954 357L950 362L946 366L942 369L936 373L930 377L926 379L921 382L914 384L909 386L902 387L894 388L886 388L878 387L871 386L866 384L858 382L854 380L850 378L843 373L838 370L834 367L830 364L826 360L822 355L818 350L814 345L812 341L810 337L806 330L804 325L802 320L800 313L798 305L797 301L796 293L796 285L796 277L796 269L797 261L798 257L800 249L802 243L804 237L806 232L810 225L812 221L814 217L818 211L822 206L826 201L830 197L834 193L838 190L842 187L846 184L852 181L858 178L862 176L870 173L874 172" stroke-width="0.8"/><path d="M1027 646L1035 646L1043 646L1051 646L1055 647L1063 648L1071 650L1075 651L1083 655L1087 656L1091 659L1097 663L1103 666L1107 670L1111 673L1115 677L1119 682L1123 687L1126 691L1128 695L1131 699L1135 707L1136 711L1139 717L1141 723L1143 731L1143 735L1145 743L1145 751L1146 759L1146 767L1146 775L1146 783L1145 791L1144 799L1144 807L1143 814L1142 819L1141 827L1140 835L1139 843L1138 847L1137 855L1136 863L1135 871L1134 876L1133 884L1131 892L1131 896L1129 904L1127 912L1126 916L1124 924L1123 929L1121 936L1119 941L1116 948L1114 952L1111 957L1107 963L1103 967L1099 971L1095 974L1091 976L1083 978L1075 978L1068 976L1063 973L1059 970L1055 967L1051 963L1047 958L1043 952L1040 948L1037 944L1035 939L1031 932L1029 928L1027 922L1024 916L1022 912L1019 904L1016 900L1015 895L1011 888L1009 884L1007 877L1004 871L1002 867L998 860L996 855L994 851L990 844L988 839L986 835L982 828L980 823L978 819L974 812L972 807L970 803L966 796L964 791L962 787L959 779L957 775L954 767L953 763L951 755L950 751L948 743L947 735L946 731L946 723L946 719L947 711L949 703L951 699L954 691L957 687L959 683L962 678L966 674L970 670L974 667L980 663L986 659L990 656L994 655L1003 651L1007 650L1015 648L1023 647L1027 646" stroke-width="0.8"/><path d="M44 726L52 724L60 724L68 726L72 728L77 731L81 735L85 739L88 744L91 751L93 755L95 763L96 771L95 779L94 787L92 792L89 799L86 803L82 807L77 811L72 813L64 815L56 814L49 811L44 808L40 805L36 801L32 795L30 791L28 787L25 779L24 775L23 767L23 759L24 752L26 747L28 742L32 736L36 732L40 729L44 726" stroke-width="0.8"/><path d="M601 0L601 8L601 16L599 24L598 32L596 36L593 44L592 48L589 53L585 60L583 64L580 68L577 72L573 77L569 82L565 86L561 90L557 94L553 98L549 101L545 104L539 108L533 112L529 114L525 116L517 120L513 122L505 124L501 125L493 126L485 127L477 126L472 124L465 122L461 120L455 116L449 112L445 109L441 104L438 100L435 96L432 92L429 88L425 80L423 76L421 71L419 64L417 59L415 52L414 44L413 40L412 32L412 24L412 16L412 8L413 4" stroke-width="0.8"/><path d="M0 129L7 133L11 137L13 141L16 146L18 153L20 157L23 165L24 169L27 177L29 181L32 189L34 193L36 198L40 205L42 209L44 213L48 220L51 225L54 229L56 233L60 238L64 243L68 248L72 253L75 257L79 261L83 265L86 269L90 273L94 277L98 281L102 285L105 289L109 293L113 297L116 301L120 306L124 311L128 317L131 321L133 325L136 333L137 337L138 345L138 353L136 359L134 365L132 369L128 374L124 379L120 384L116 387L112 391L108 394L103 398L97 402L92 404L88 406L81 410L76 412L72 414L64 417L60 418L52 421L48 422L40 424L32 425L28 426L20 427L12 427L4 427" stroke-width="0.8"/><path d="M1600 459L1592 462L1588 463L1580 465L1576 466L1568 468L1560 469L1556 470L1548 472L1540 473L1534 474L1528 475L1520 476L1512 478L1508 478L1500 480L1492 481L1488 482L1480 484L1472 486L1468 487L1460 488L1453 490L1448 491L1440 493L1434 494L1428 495L1420 497L1412 498L1408 499L1399 500L1391 500L1383 501L1375 501L1367 501L1359 500L1351 499L1345 498L1339 496L1332 494L1327 491L1323 489L1319 486L1315 480L1313 474L1312 466L1314 458L1315 452L1317 446L1319 441L1322 434L1324 430L1327 422L1329 418L1331 413L1334 406L1335 401L1338 394L1339 389L1341 382L1343 374L1345 369L1346 361L1347 357L1349 349L1351 341L1352 337L1354 329L1356 325L1358 317L1359 313L1362 305L1364 301L1367 293L1369 289L1371 284L1375 277L1377 273L1380 269L1383 264L1387 258L1391 253L1394 249L1398 245L1401 241L1405 237L1409 233L1413 229L1418 225L1423 221L1428 217L1432 214L1436 211L1440 208L1445 205L1452 201L1456 199L1460 197L1468 193L1472 191L1477 189L1484 186L1489 185L1496 183L1502 181L1508 179L1516 178L1523 177L1528 176L1536 175L1544 175L1552 175L1560 175L1568 176L1573 177L1580 178L1588 180L1593 181L1600 183" stroke-width="0.8"/><path d="M878 192L886 191L894 190L902 190L910 192L914 193L922 196L926 198L931 201L937 205L941 209L945 213L949 217L952 221L954 225L958 233L960 237L962 243L964 249L966 257L966 262L967 269L967 277L966 284L966 289L964 297L962 303L960 309L958 314L955 321L953 325L950 329L946 335L942 340L938 344L934 348L930 351L926 354L920 357L914 360L910 362L902 364L894 365L886 365L878 364L870 362L866 361L858 358L854 355L850 353L846 349L841 345L837 341L834 337L830 333L826 326L824 321L822 317L819 309L818 305L816 297L815 289L814 281L815 273L816 265L817 257L818 253L821 245L823 241L826 234L829 229L832 225L835 221L838 217L842 213L846 209L851 205L857 201L862 198L866 196L874 193L878 192" stroke-width="0.8"/><path d="M1035 666L1043 666L1048 667L1055 667L1063 669L1068 671L1075 673L1079 675L1085 679L1091 682L1095 685L1099 689L1103 693L1107 697L1111 702L1114 707L1116 711L1119 716L1122 723L1123 727L1126 735L1127 739L1128 747L1129 755L1130 763L1130 771L1130 779L1129 787L1128 795L1128 803L1127 808L1126 815L1124 823L1123 831L1122 835L1120 843L1119 849L1117 855L1115 863L1114 867L1112 876L1110 880L1107 888L1106 892L1103 898L1100 904L1098 908L1095 912L1091 916L1086 920L1079 922L1071 922L1066 920L1060 916L1056 912L1052 908L1049 904L1046 900L1043 895L1039 889L1035 884L1033 880L1030 876L1027 869L1023 863L1021 859L1019 855L1015 848L1012 843L1010 839L1007 834L1003 827L1001 823L998 819L994 812L992 807L990 803L986 797L984 791L982 787L978 779L977 775L974 769L973 763L970 755L969 751L968 743L967 735L968 727L969 719L970 711L972 707L974 702L978 695L982 691L986 687L990 683L994 680L998 677L1003 675L1011 671L1015 670L1023 668L1031 667L1035 666" stroke-width="0.8"/><path d="M590 0L590 8L589 12L588 20L587 28L585 32L583 40L581 44L577 51L574 56L572 60L569 64L565 68L561 73L557 77L553 81L549 85L545 88L540 92L533 96L529 99L525 101L517 104L513 106L505 108L501 109L493 110L485 110L479 108L473 107L467 104L461 101L457 98L453 95L449 91L445 86L441 81L438 76L436 72L433 66L431 60L429 56L427 48L425 40L424 36L424 28L423 20L424 12L424 4" stroke-width="0.8"/><path d="M0 185L5 189L9 193L13 197L16 201L20 206L24 211L28 216L31 221L34 225L38 229L41 233L44 237L48 242L52 247L56 251L60 256L64 260L68 265L72 269L76 273L80 277L84 281L88 285L91 289L95 293L99 297L102 301L106 305L109 309L112 314L116 321L119 325L120 329L123 337L124 345L123 353L121 361L119 365L116 370L112 375L108 379L104 383L100 386L96 390L90 394L84 397L80 399L75 402L68 405L64 406L56 409L52 410L44 412L38 414L32 415L24 416L16 416L8 416L0 416" stroke-width="0.8"/><path d="M1600 448L1595 450L1588 452L1581 454L1576 455L1568 457L1563 458L1556 459L1548 461L1540 462L1536 463L1528 464L1520 465L1513 466L1508 467L1500 468L1492 469L1488 470L1480 471L1472 473L1465 474L1460 475L1452 476L1444 478L1440 478L1432 480L1424 481L1416 482L1412 482L1404 483L1395 483L1387 483L1379 482L1375 482L1367 480L1362 478L1355 475L1351 472L1347 467L1344 462L1343 458L1342 450L1343 442L1343 437L1345 430L1346 422L1347 417L1349 410L1351 402L1352 398L1353 390L1355 382L1355 377L1357 369L1358 361L1359 355L1361 349L1362 341L1363 336L1365 329L1367 321L1369 317L1371 309L1373 305L1375 299L1378 293L1380 289L1383 282L1386 277L1389 273L1391 269L1395 263L1399 257L1403 253L1407 249L1410 245L1414 241L1418 237L1423 233L1427 229L1432 226L1436 223L1440 220L1444 217L1450 213L1456 210L1460 207L1465 205L1472 201L1476 200L1483 197L1488 195L1495 193L1500 191L1508 189L1512 189L1520 187L1528 186L1536 185L1544 185L1552 185L1560 186L1568 186L1576 188L1582 189L1588 190L1596 193L1600 194" stroke-width="0.8"/><path d="M886 216L894 216L902 216L906 217L914 220L918 223L922 225L926 229L930 233L934 239L938 245L940 249L942 257L943 261L944 269L944 277L943 285L942 291L941 297L938 303L935 309L933 313L930 317L926 321L922 325L917 329L910 333L906 335L899 337L894 338L886 338L880 337L874 336L868 333L862 330L858 327L854 323L850 318L847 313L844 309L842 305L840 297L838 290L837 285L837 277L838 269L839 265L841 257L842 253L846 245L849 241L852 237L855 233L859 229L865 225L870 222L874 220L882 217L886 216" stroke-width="0.8"/><path d="M1039 691L1047 691L1051 691L1059 693L1065 695L1071 697L1075 699L1080 703L1085 707L1089 711L1093 715L1096 719L1099 724L1102 731L1104 735L1107 743L1108 747L1109 755L1110 763L1110 771L1110 779L1109 787L1108 795L1107 800L1105 807L1103 815L1101 819L1099 826L1096 831L1095 835L1091 842L1087 847L1083 851L1079 854L1075 856L1067 857L1062 855L1055 852L1051 849L1047 845L1043 842L1039 837L1035 833L1031 828L1027 823L1025 819L1022 815L1019 811L1015 804L1012 799L1009 795L1007 790L1003 783L1001 779L998 772L997 767L994 759L994 755L992 747L992 739L992 731L994 723L996 719L998 714L1003 708L1007 704L1011 700L1015 698L1021 695L1027 693L1035 691L1039 691" stroke-width="0.8"/><path d="M577 0L578 4L577 8L577 16L575 24L573 29L571 36L569 40L565 47L562 52L559 56L556 60L553 64L549 68L544 72L539 76L534 80L529 83L525 85L518 88L513 90L505 92L501 93L493 93L486 92L481 91L473 88L469 86L465 84L461 80L457 76L453 72L449 66L445 60L444 56L441 50L439 44L437 36L437 32L436 24L436 16L436 8L437 1" stroke-width="0.8"/><path d="M0 218L4 221L10 225L15 229L20 233L24 237L28 241L32 245L36 249L40 253L44 257L48 261L52 264L56 268L60 273L64 277L68 281L72 285L76 289L80 293L84 297L87 301L91 305L94 309L97 313L100 318L104 325L106 329L108 337L109 341L109 349L108 353L105 361L103 365L100 369L96 374L92 378L88 382L82 386L76 389L72 391L67 394L60 396L56 398L48 400L44 402L36 403L28 404L20 405L12 405L4 405" stroke-width="0.8"/><path d="M1600 437L1596 439L1588 441L1584 442L1576 445L1571 446L1564 447L1556 449L1550 450L1544 451L1536 452L1528 453L1520 454L1516 454L1508 455L1500 456L1492 457L1487 458L1480 459L1472 460L1464 461L1456 462L1452 462L1444 463L1436 464L1428 464L1420 464L1412 464L1404 463L1396 462L1391 460L1385 458L1379 454L1375 450L1372 446L1370 442L1368 434L1367 430L1366 422L1366 414L1366 406L1367 398L1367 390L1368 386L1368 378L1369 369L1370 361L1371 353L1372 349L1373 341L1375 333L1376 329L1378 321L1379 316L1382 309L1383 305L1387 297L1388 293L1391 287L1395 281L1397 277L1400 273L1404 268L1408 262L1412 257L1415 253L1419 249L1423 245L1427 241L1432 237L1436 234L1440 231L1444 228L1448 225L1454 221L1460 218L1464 216L1469 213L1476 210L1480 208L1488 205L1492 204L1500 201L1504 200L1512 198L1520 197L1524 196L1532 195L1540 195L1548 195L1556 195L1564 196L1570 197L1576 198L1584 200L1588 201L1596 203L1600 205" stroke-width="0.8"/><path d="M886 264L894 263L898 265L902 272L903 277L902 281L898 287L894 289L886 289L882 286L880 281L880 273L882 268L886 264" stroke-width="0.8"/><path d="M1043 730L1051 729L1057 731L1063 734L1067 738L1071 742L1073 747L1075 751L1077 759L1077 767L1076 775L1074 779L1071 785L1067 789L1061 791L1057 791L1051 789L1047 787L1043 783L1039 778L1035 772L1032 767L1031 762L1029 755L1029 747L1031 742L1035 735L1039 732L1043 730" stroke-width="0.8"/><path d="M563 0L564 8L563 16L561 22L559 28L557 33L554 40L551 44L548 48L545 52L541 56L536 60L531 64L525 68L521 70L515 72L509 74L501 75L493 75L485 74L481 72L474 68L469 65L465 61L462 56L459 52L457 48L453 40L452 36L450 28L449 20L449 12L450 4" stroke-width="1.6"/><path d="M0 244L4 246L10 249L16 253L20 255L24 258L28 261L33 265L38 269L42 273L47 277L51 281L55 285L60 289L64 293L67 297L71 301L75 305L78 309L81 313L84 318L88 325L90 329L92 337L92 341L92 347L91 353L88 359L84 365L81 369L76 373L72 376L68 379L64 382L56 385L52 387L44 389L40 390L32 392L24 393L16 393L8 393L0 392" stroke-width="1.6"/><path d="M1600 426L1592 429L1588 431L1580 433L1576 434L1568 436L1560 438L1556 438L1548 440L1540 441L1532 442L1528 442L1520 443L1512 444L1504 445L1496 445L1488 446L1484 446L1476 447L1468 447L1460 447L1452 447L1444 447L1436 447L1428 446L1424 445L1416 444L1411 442L1404 438L1399 435L1395 431L1391 426L1389 422L1387 418L1385 410L1384 402L1383 398L1382 390L1382 382L1382 373L1382 365L1382 357L1383 349L1384 345L1385 337L1387 329L1388 325L1390 317L1391 312L1394 305L1396 301L1399 293L1401 289L1404 285L1408 279L1411 273L1414 269L1417 265L1421 261L1424 257L1428 253L1432 249L1437 245L1442 241L1447 237L1452 234L1456 231L1460 228L1466 225L1472 222L1476 220L1483 217L1488 215L1494 213L1500 211L1508 209L1512 208L1520 206L1528 205L1535 205L1540 205L1548 205L1552 205L1560 205L1568 207L1576 208L1580 209L1588 211L1592 213L1600 216" stroke-width="1.6"/><path d="M546 0L547 8L546 16L544 20L541 28L539 32L536 36L533 40L528 44L523 48L517 51L513 53L505 55L497 55L489 53L485 51L481 48L477 44L473 39L470 32L468 28L467 20L466 12L467 4" stroke-width="0.8"/><path d="M0 268L4 269L12 273L16 275L21 277L27 281L32 285L36 288L40 291L44 294L48 298L52 302L56 306L60 311L64 316L67 321L70 325L72 333L73 337L73 345L72 349L68 357L65 361L60 365L56 368L52 371L46 373L40 375L32 377L28 378L20 379L12 379L4 378L0 377" stroke-width="0.8"/><path d="M1600 415L1594 418L1588 420L1583 422L1576 424L1568 426L1564 427L1556 428L1548 429L1544 430L1536 431L1528 432L1520 432L1512 433L1504 433L1496 434L1492 434L1484 434L1476 434L1470 434L1464 433L1456 433L1448 432L1440 430L1436 429L1428 426L1424 425L1419 422L1414 418L1410 414L1407 410L1404 404L1401 398L1399 394L1397 386L1396 378L1395 373L1395 365L1395 357L1395 349L1395 342L1396 337L1398 329L1399 321L1401 317L1403 309L1405 305L1408 299L1410 293L1412 289L1416 284L1420 278L1423 273L1426 269L1430 265L1433 261L1437 257L1442 253L1446 249L1452 245L1456 242L1460 239L1464 237L1470 233L1476 230L1480 228L1488 225L1492 223L1499 221L1504 220L1512 218L1516 217L1524 216L1532 215L1540 214L1548 214L1556 215L1564 216L1569 217L1576 218L1584 221L1588 222L1595 225L1600 227" stroke-width="0.8"/><path d="M0 296L8 297L12 299L18 301L24 305L28 307L32 311L36 314L40 319L44 325L46 329L47 337L45 345L42 349L37 353L32 356L28 357L20 359L12 359L4 358L0 356" stroke-width="0.8"/><path d="M1600 404L1596 406L1588 409L1584 411L1576 413L1572 414L1564 416L1557 418L1552 419L1544 420L1536 421L1528 421L1522 422L1516 422L1508 422L1500 422L1492 422L1484 422L1480 421L1472 421L1464 419L1456 418L1452 417L1444 414L1440 412L1435 410L1429 406L1425 402L1421 398L1418 394L1416 389L1412 382L1411 378L1409 369L1408 361L1407 357L1407 349L1407 341L1408 337L1409 329L1411 321L1412 317L1414 309L1416 305L1420 297L1422 293L1424 289L1428 284L1432 278L1436 273L1439 269L1443 265L1447 261L1452 257L1456 254L1460 251L1464 248L1468 245L1475 241L1480 239L1484 237L1492 234L1496 232L1504 229L1508 228L1516 227L1524 225L1528 225L1536 224L1544 224L1552 225L1556 225L1564 226L1572 228L1576 229L1584 232L1588 233L1596 237L1600 239" stroke-width="0.8"/><path d="M501 4L509 2L513 5L514 12L511 16L505 18L501 16L499 8L501 4" stroke-width="0.8"/><path d="M1600 391L1596 394L1588 398L1584 399L1578 402L1572 403L1564 406L1560 407L1552 408L1544 409L1540 410L1532 410L1524 411L1516 411L1508 411L1500 411L1492 410L1487 410L1480 409L1472 407L1466 406L1460 404L1455 402L1448 398L1444 395L1440 392L1436 388L1432 383L1428 378L1426 373L1424 368L1422 361L1420 353L1420 345L1420 337L1421 329L1422 321L1424 317L1426 309L1428 305L1432 297L1434 293L1436 289L1440 284L1444 279L1448 275L1452 270L1456 267L1460 263L1464 260L1468 257L1474 253L1480 250L1484 248L1490 245L1496 242L1500 241L1508 239L1515 237L1520 236L1528 235L1536 234L1544 234L1552 235L1560 236L1564 237L1572 239L1578 241L1584 243L1588 245L1595 249L1600 252" stroke-width="0.8"/><path d="M1600 377L1596 380L1592 383L1587 386L1580 389L1576 391L1568 393L1564 394L1556 396L1549 398L1544 398L1536 399L1528 400L1520 400L1512 400L1504 399L1496 398L1491 398L1484 396L1476 394L1472 393L1465 390L1460 387L1456 384L1452 381L1448 377L1444 373L1440 366L1437 361L1436 356L1434 349L1433 341L1433 333L1434 325L1436 319L1437 313L1440 307L1442 301L1444 297L1448 292L1452 287L1456 282L1460 278L1464 274L1468 270L1472 267L1476 264L1481 261L1488 257L1492 255L1497 253L1504 251L1509 249L1516 247L1524 246L1532 245L1538 245L1540 245L1548 245L1556 246L1564 248L1568 249L1576 252L1580 254L1586 257L1592 260L1596 263L1600 266" stroke-width="0.8"/><path d="M1600 359L1596 364L1592 367L1588 370L1583 373L1576 377L1572 379L1566 382L1560 383L1552 385L1548 386L1540 387L1532 388L1524 388L1516 388L1508 387L1500 386L1496 385L1488 383L1483 382L1476 378L1472 376L1468 373L1463 369L1459 365L1456 361L1452 354L1450 349L1448 341L1448 337L1448 330L1448 325L1450 317L1452 312L1454 305L1456 301L1460 296L1464 291L1468 286L1472 282L1476 279L1480 275L1484 273L1489 269L1496 266L1500 264L1508 261L1512 260L1520 258L1527 257L1532 257L1540 256L1548 257L1552 258L1560 259L1566 261L1572 263L1576 265L1583 269L1588 273L1592 276L1596 280L1600 284" stroke-width="1.6"/><path d="M1516 272L1524 270L1532 269L1540 269L1548 270L1556 272L1560 273L1568 277L1572 279L1576 281L1581 285L1585 289L1588 293L1592 299L1595 305L1596 309L1598 317L1598 325L1597 333L1596 337L1592 345L1589 349L1585 353L1581 357L1576 361L1572 364L1568 366L1560 369L1556 371L1548 373L1544 374L1536 375L1528 375L1520 375L1512 374L1508 373L1500 371L1495 369L1488 366L1484 364L1480 361L1475 357L1472 353L1468 346L1466 341L1464 333L1464 325L1466 317L1468 312L1471 305L1473 301L1476 297L1480 293L1484 289L1489 285L1494 281L1500 278L1504 276L1512 273L1516 272" stroke-width="0.8"/><path d="M1516 289L1524 286L1532 285L1540 286L1548 287L1554 289L1560 292L1564 295L1568 298L1572 302L1576 309L1577 313L1579 321L1578 329L1576 334L1572 341L1568 345L1564 348L1560 351L1555 353L1548 356L1542 357L1536 358L1528 359L1520 358L1516 357L1508 355L1504 353L1497 349L1492 345L1489 341L1487 337L1485 329L1485 321L1487 313L1489 309L1492 305L1496 301L1500 297L1506 293L1512 290L1516 289" stroke-width="0.8"/></g></svg>